<svg width="333" height="19" viewBox="0 0 333 19" fill="none" xmlns="http://www.w3.org/2000/svg">
<path d="M313.305 10.0406C312.849 10.0565 312.387 10.0674 311.94 10.0912C311.649 10.1061 311.525 10.0624 311.331 10.0396C311.266 10.0316 311.197 10.0157 311.137 10.0177C310.685 10.0336 310.233 10.0515 309.781 10.0694C309.642 10.1081 309.555 10.1598 309.342 10.1787C309.135 10.1966 308.89 10.1966 308.66 10.2055C308.355 10.2165 308.051 10.2274 307.746 10.2373C307.594 10.2423 307.469 10.2612 307.419 10.2969C307.409 10.3029 307.511 10.3178 307.566 10.3268C307.751 10.3566 307.931 10.3903 308.134 10.4132C308.327 10.4351 308.567 10.3993 308.775 10.4271C309.241 10.4897 309.246 10.4887 309.601 10.4768C309.905 10.4659 310.21 10.454 310.514 10.446C310.574 10.444 310.643 10.4589 310.708 10.4669C310.902 10.4887 311.026 10.5384 311.312 10.5195C311.529 10.5046 311.769 10.5017 311.995 10.4937C312.184 10.5225 312.36 10.5553 312.563 10.5782C312.752 10.6 312.807 10.6169 312.706 10.6457C312.613 10.6726 312.484 10.6835 312.313 10.6855C312.161 10.6865 312.009 10.6954 311.857 10.7004C311.778 10.7034 311.705 10.7054 311.631 10.7083C311.34 10.7193 311.34 10.7193 310.81 10.6557C310.602 10.6308 310.367 10.6656 310.168 10.6418C310.034 10.6259 309.919 10.602 309.79 10.5851C309.735 10.5782 309.647 10.5772 309.578 10.5792C309.347 10.5861 309.116 10.5911 308.895 10.604C308.738 10.6129 308.646 10.6408 308.664 10.6686C308.669 10.6795 308.78 10.6954 308.844 10.6964C308.992 10.6984 309.149 10.6845 309.292 10.6915C309.43 10.6984 309.573 10.7183 309.675 10.7401C309.882 10.7859 310.117 10.7451 310.316 10.757C310.523 10.77 310.694 10.8097 310.893 10.8336C310.943 10.8395 311.04 10.8296 311.119 10.8266C311.345 10.8196 311.571 10.8137 311.797 10.8067C311.986 10.8355 312.189 10.8614 312.36 10.8942C312.669 10.9538 313.001 10.9766 313.402 10.9478C313.628 10.9319 313.85 10.9379 314.03 10.9766C314.214 11.0164 314.426 11.0124 314.662 11.0045C314.879 10.9965 315.1 10.9747 315.321 11.0025C315.801 11.0641 315.806 11.0671 316.373 11.0432C316.544 11.0363 316.673 11.0343 316.802 11.0571C316.922 11.078 317.051 11.0959 317.176 11.1158C317.402 11.1088 317.633 11.1019 317.859 11.0939C318.149 11.083 318.311 11.0969 318.38 11.1525C318.422 11.1863 318.44 11.2171 318.542 11.24C318.662 11.2678 318.791 11.2668 318.966 11.2589C319.132 11.2519 319.252 11.241 319.321 11.2052C319.349 11.1903 319.404 11.1764 319.455 11.1645C319.497 11.1555 319.561 11.1416 319.598 11.1436C319.667 11.1476 319.759 11.1585 319.783 11.1714C320.009 11.2917 320.009 11.2927 320.239 11.3274C320.493 11.3662 320.756 11.401 320.987 11.4447C321.194 11.4834 321.402 11.4666 321.628 11.4666C321.799 11.4666 321.909 11.4924 321.896 11.5182C321.886 11.5331 321.822 11.555 321.766 11.557C321.314 11.5768 320.858 11.5937 320.401 11.6077C320.345 11.6096 320.276 11.5918 320.212 11.5828C320.082 11.5649 319.967 11.5371 319.829 11.5311C319.69 11.5252 319.529 11.5401 319.377 11.545C319.224 11.55 319.063 11.5629 318.925 11.555C318.786 11.547 318.675 11.5182 318.546 11.4993C318.486 11.4904 318.403 11.4775 318.352 11.4805C318.016 11.5043 317.767 11.4715 317.527 11.4278C317.476 11.4189 317.388 11.4129 317.324 11.4149C316.789 11.4318 316.258 11.4516 315.723 11.4705C315.506 11.4785 315.331 11.4437 315.284 11.3851C315.261 11.3523 315.215 11.3195 315.215 11.2867C315.215 11.2271 314.962 11.1943 314.777 11.2012C314.473 11.2112 314.164 11.2191 313.864 11.234C313.619 11.2459 313.411 11.234 313.245 11.1982C313.052 11.1575 312.83 11.1655 312.609 11.1764C312.443 11.1843 312.396 11.2171 312.406 11.2996C312.415 11.3662 312.336 11.3871 312.037 11.398C311.658 11.4119 311.275 11.4258 310.893 11.4367C310.833 11.4387 310.763 11.4218 310.703 11.4129C310.574 11.395 310.459 11.3662 310.32 11.3602C310.182 11.3533 310.021 11.3682 309.868 11.3741C309.716 11.3791 309.555 11.393 309.416 11.3861C309.278 11.3791 309.162 11.3493 309.038 11.3304C308.978 11.3215 308.904 11.3085 308.844 11.3105C308.54 11.3185 308.235 11.3304 307.931 11.3413C307.589 11.3533 307.589 11.3533 307.105 11.2917C306.883 11.2638 306.662 11.2857 306.445 11.2936C306.215 11.3016 305.998 11.3056 305.818 11.2658C305.698 11.24 305.564 11.2241 305.421 11.2291C305.038 11.241 304.66 11.2559 304.277 11.2678C304.212 11.2698 304.125 11.2648 304.074 11.2559C303.829 11.2142 303.59 11.1814 303.248 11.2022C302.953 11.2201 302.635 11.2211 302.339 11.238C302.178 11.2469 302.104 11.2787 302.136 11.3036C302.155 11.3165 302.252 11.3314 302.316 11.3314C302.464 11.3324 302.625 11.3175 302.764 11.3235C303.05 11.3354 303.193 11.4188 303.566 11.396C303.788 11.3821 304.019 11.3771 304.249 11.3731C304.309 11.3721 304.374 11.391 304.438 11.401C304.623 11.4278 304.784 11.4626 305.052 11.4447C305.273 11.4308 305.509 11.4268 305.735 11.4189C306.095 11.4059 306.095 11.4069 306.561 11.4675C306.782 11.4964 307.003 11.4735 307.22 11.4666C307.382 11.4616 307.534 11.4516 307.663 11.4656C307.862 11.4864 308.005 11.5341 308.249 11.5311C308.48 11.5282 308.706 11.5142 308.936 11.5093C309.079 11.5063 309.213 11.5222 309.329 11.549C309.449 11.5759 309.578 11.5878 309.735 11.5818C309.961 11.5739 310.191 11.5639 310.422 11.559C310.487 11.558 310.56 11.5669 310.62 11.5749C310.75 11.5928 310.874 11.6136 310.999 11.6325C311.225 11.6265 311.455 11.6246 311.677 11.6126C311.848 11.6037 311.967 11.6077 312.106 11.6275C312.281 11.6544 312.424 11.7021 312.71 11.6792C312.853 11.6683 313.019 11.6713 313.162 11.6613C313.338 11.6484 313.458 11.6534 313.582 11.6832C313.817 11.7398 314.113 11.7408 314.417 11.719C314.749 11.6951 314.999 11.7229 315.248 11.7667C315.511 11.8124 315.511 11.8114 315.714 11.9217C315.774 11.9535 315.944 11.9684 316.087 11.9624C316.327 11.9525 316.535 11.9574 316.71 11.9952C316.895 12.0359 317.116 12.031 317.342 12.0201C317.642 12.0051 317.942 11.9922 318.186 12.0499C318.306 12.0777 318.436 12.0846 318.597 12.0777C319.054 12.0598 319.515 12.0489 319.963 12.027C320.235 12.0131 320.392 12.0449 320.576 12.0717C320.825 12.1085 321.097 12.1413 321.097 12.2198C321.097 12.2327 321.162 12.2476 321.217 12.2576C321.337 12.2784 321.467 12.2963 321.591 12.3162C321.776 12.346 321.955 12.3708 322.209 12.3549C322.431 12.342 322.666 12.338 322.892 12.3291C323.118 12.3202 323.326 12.3152 323.529 12.3529C323.764 12.3957 324.013 12.4364 324.281 12.4682C324.47 12.4911 324.719 12.4523 324.922 12.4831C325.047 12.502 325.166 12.5239 325.3 12.5398C325.356 12.5467 325.443 12.5417 325.517 12.5398C325.669 12.5358 325.826 12.5328 325.974 12.5229C326.145 12.5119 326.274 12.5139 326.403 12.5368C326.523 12.5577 326.643 12.5865 326.781 12.5924C326.989 12.6014 327.219 12.5616 327.427 12.6073C327.533 12.6302 327.667 12.6521 327.805 12.659C327.944 12.666 328.105 12.6511 328.253 12.6521C328.317 12.6521 328.396 12.668 328.433 12.6809C328.456 12.6878 328.424 12.7067 328.391 12.7166C328.35 12.7286 328.29 12.7445 328.23 12.7465C327.773 12.7643 327.316 12.7793 326.86 12.7961C326.587 12.8061 326.587 12.8061 326.038 12.7435C325.909 12.7286 325.766 12.7315 325.605 12.7385C325.388 12.7474 325.166 12.7643 324.94 12.7465C324.645 12.6789 324.281 12.6729 323.893 12.6988C323.732 12.7097 323.584 12.7097 323.464 12.6908C323.21 12.653 322.943 12.6183 322.717 12.5736C322.541 12.5388 322.458 12.5358 322.385 12.5835C322.362 12.5984 322.338 12.6143 322.343 12.6282C322.371 12.6779 322.421 12.7266 322.449 12.7763C322.458 12.7902 322.421 12.8061 322.398 12.821C322.325 12.8627 322.228 12.8597 322.066 12.825C321.905 12.7902 321.711 12.7673 321.453 12.7832C321.231 12.7971 320.991 12.7952 320.77 12.8101C320.428 12.8319 320.189 12.8001 319.944 12.7574C319.893 12.7484 319.806 12.7435 319.741 12.7455C319.054 12.7683 318.371 12.7942 317.684 12.817C317.536 12.822 317.402 12.8071 317.287 12.7802C317.167 12.7534 317.033 12.7395 316.885 12.7445C316.276 12.7653 315.667 12.7842 315.058 12.8101C314.809 12.821 314.611 12.8081 314.44 12.7733C314.311 12.7474 314.191 12.7395 314.03 12.7425C313.854 12.7455 313.73 12.7554 313.642 12.7842C313.559 12.812 313.619 12.8289 313.804 12.8508C314.002 12.8746 314.186 12.9055 314.376 12.9333C314.528 12.9293 314.68 12.9213 314.828 12.9223C314.892 12.9223 314.952 12.9402 315.017 12.9502C315.202 12.979 315.372 13.0078 315.635 12.9919C315.857 12.978 316.092 12.975 316.318 12.9661C316.632 12.9551 316.632 12.9551 317.139 13.0177C317.268 13.0336 317.407 13.0326 317.573 13.0237C317.716 13.0167 317.863 13.0307 317.965 13.0605C318.006 13.0724 317.993 13.0923 317.905 13.1579C317.905 13.2066 318.002 13.1847 318.034 13.1529C318.085 13.1072 317.988 13.0923 317.803 13.1171C317.674 13.135 317.61 13.1608 317.642 13.1817C317.66 13.1926 317.748 13.2066 317.905 13.1579C318.311 13.0982 318.62 13.0913 318.915 13.0754C319.091 13.0664 319.201 13.0704 319.34 13.0962C319.506 13.127 319.672 13.1599 319.944 13.144C320.239 13.1261 320.553 13.1241 320.853 13.1092C321.13 13.0952 321.273 13.139 321.448 13.1648C321.66 13.1956 321.895 13.1608 322.089 13.1787C322.292 13.1966 322.435 13.2403 322.671 13.2483C323.012 13.2215 323.229 13.2711 323.487 13.3039C323.69 13.3288 323.93 13.3069 324.147 13.296C324.391 13.2841 324.594 13.295 324.765 13.3308C324.959 13.3715 325.176 13.3626 325.397 13.3536C325.914 13.3337 325.932 13.3308 326.232 13.3854C326.449 13.4252 326.657 13.4073 326.873 13.4023C327.063 13.4291 327.247 13.458 327.445 13.4818C327.496 13.4878 327.593 13.4778 327.672 13.4749C327.898 13.4669 328.128 13.459 328.354 13.451C328.507 13.446 328.668 13.4311 328.806 13.4371C328.945 13.444 329.06 13.4729 329.185 13.4918C329.309 13.5106 329.438 13.5295 329.558 13.5494C329.743 13.5792 329.918 13.604 330.177 13.5891C330.398 13.5762 330.629 13.5722 330.859 13.5633C331.15 13.5524 331.141 13.5553 331.681 13.615C331.971 13.6478 332.271 13.608 332.566 13.604C332.714 13.6021 332.857 13.613 332.958 13.6418C333 13.6537 332.986 13.6736 333 13.6905C332.239 13.7173 331.473 13.7402 330.721 13.773C330.43 13.7859 330.278 13.7501 330.121 13.7203C329.863 13.6726 329.521 13.7422 329.277 13.6805C329.129 13.6438 328.917 13.6229 328.663 13.6408C328.516 13.6507 328.359 13.6497 328.207 13.6587C327.819 13.6806 327.464 13.6815 327.155 13.613C327.049 13.5891 326.896 13.5762 326.786 13.5534C326.657 13.5285 326.532 13.5146 326.38 13.5196C325.692 13.5434 325.01 13.5673 324.327 13.5931C324.267 13.5951 324.207 13.61 324.156 13.6209C324.027 13.6488 324.068 13.6706 324.276 13.6885C324.345 13.6945 324.401 13.7074 324.465 13.7173C324.59 13.7362 324.705 13.766 324.843 13.773C324.982 13.7799 325.143 13.766 325.296 13.761C325.448 13.7561 325.609 13.7412 325.748 13.7471C325.886 13.7541 326.001 13.7829 326.131 13.8008C326.191 13.8097 326.264 13.8246 326.324 13.8236C326.629 13.8177 326.929 13.8068 327.233 13.7978C327.422 13.8246 327.584 13.8634 327.81 13.8723C327.953 13.8783 328.105 13.8674 328.253 13.8694C328.317 13.8704 328.4 13.8853 328.433 13.8982C328.451 13.9061 328.391 13.926 328.345 13.9359C328.17 13.9737 327.93 13.9667 327.713 13.9787C327.478 13.9916 327.266 13.9876 327.086 13.9489C326.966 13.923 326.832 13.9091 326.684 13.9141C326.301 13.927 325.923 13.9419 325.54 13.9528C325.475 13.9548 325.397 13.9459 325.337 13.9389C324.853 13.8783 324.853 13.8763 324.511 13.8892C324.008 13.9081 324.009 13.9081 323.672 13.8554C323.607 13.8455 323.538 13.8266 323.483 13.8276C322.947 13.8435 322.417 13.8594 321.886 13.8823C321.711 13.8892 321.591 13.8892 321.462 13.8634C321.351 13.8415 321.222 13.8167 321.084 13.8107C320.941 13.8048 320.784 13.8197 320.631 13.8246C320.479 13.8296 320.318 13.8425 320.184 13.8346C320.046 13.8266 319.926 13.7988 319.806 13.7789C319.681 13.7581 319.547 13.7591 319.377 13.767C318.851 13.7899 318.846 13.7869 318.325 13.7253C318.265 13.7183 318.186 13.7104 318.122 13.7124C317.739 13.7243 317.361 13.7392 316.978 13.7511C316.83 13.7561 316.687 13.7432 316.585 13.7143C316.544 13.7024 316.558 13.6825 316.53 13.6438C316.498 13.6348 316.535 13.6507 316.544 13.6657C316.613 13.6637 316.696 13.6656 316.747 13.6577C316.876 13.6388 316.941 13.614 316.908 13.5931C316.89 13.5822 316.802 13.5683 316.747 13.5683C316.646 13.5683 316.558 13.5901 316.53 13.6438C316.24 13.6766 315.93 13.6835 315.63 13.6994C315.455 13.7094 315.344 13.7044 315.206 13.6786C315.04 13.6468 314.869 13.616 314.597 13.6319C314.302 13.6497 313.988 13.6527 313.684 13.6666C313.333 13.6825 313.181 13.5931 312.886 13.5951C312.581 13.5971 312.277 13.614 311.972 13.6259C311.704 13.6358 311.704 13.6358 311.151 13.5712C310.948 13.5474 310.708 13.5822 310.51 13.5573C310.376 13.5414 310.261 13.5176 310.131 13.5007C310.076 13.4937 309.988 13.4937 309.919 13.4957C309.536 13.5076 309.149 13.5156 308.78 13.5375C308.36 13.5633 308.042 13.5355 307.742 13.4768C307.363 13.4878 306.98 13.4937 306.607 13.5126C306.335 13.5265 306.178 13.4937 305.993 13.4669C305.929 13.458 305.873 13.4431 305.804 13.4391C305.735 13.4351 305.652 13.4431 305.578 13.446C305.273 13.457 304.96 13.4619 304.664 13.4798C304.3 13.5027 304.162 13.4212 303.88 13.4113C303.691 13.4599 303.59 13.5265 303.216 13.5315C302.911 13.5355 302.607 13.5514 302.302 13.5623C302.15 13.5673 301.998 13.5732 301.846 13.5782C301.601 13.5871 301.486 13.6259 301.537 13.6855C301.564 13.7183 301.587 13.7511 301.61 13.7839C301.657 13.8425 301.541 13.8922 301.347 13.8992C300.812 13.9181 300.282 13.9379 299.747 13.9548C299.604 13.9598 299.465 13.9429 299.35 13.9161C299.23 13.8892 299.096 13.8773 298.948 13.8823C298.413 13.9012 297.883 13.921 297.348 13.9379C297.288 13.9399 297.209 13.93 297.149 13.922C297.02 13.9041 296.896 13.8833 296.771 13.8644C296.466 13.8733 296.167 13.8793 295.867 13.8912C295.382 13.9091 295.382 13.9101 295.027 13.8554C294.962 13.8455 294.898 13.8266 294.838 13.8276C294.607 13.8316 294.381 13.8415 294.151 13.8505C293.472 13.8763 293.472 13.8763 293.274 13.8465C293.094 13.8187 292.933 13.7849 292.66 13.8008C292.365 13.8187 292.051 13.8246 291.747 13.8346C291.521 13.8415 291.295 13.8495 291.069 13.8515C291.009 13.8525 290.944 13.8336 290.88 13.8236C290.695 13.7928 290.515 13.768 290.261 13.7849C290.114 13.7948 289.957 13.7968 289.805 13.8018C289.408 13.8157 289.408 13.8157 288.757 13.7561C288.693 13.7501 288.614 13.7432 288.55 13.7461C288.015 13.764 287.484 13.7839 286.949 13.8008C286.884 13.8028 286.806 13.7968 286.741 13.7918C286.013 13.7342 286.012 13.7342 285.237 13.762C284.942 13.772 284.933 13.776 284.624 13.7233C284.485 13.7004 284.37 13.6895 284.209 13.6965C283.6 13.7203 282.986 13.7362 282.382 13.764C282.11 13.776 281.953 13.7461 281.768 13.7193C281.704 13.7104 281.634 13.6905 281.579 13.6915C280.97 13.7104 280.361 13.7332 279.752 13.7521C279.697 13.7541 279.628 13.7342 279.563 13.7253C279.438 13.7074 279.318 13.6806 279.18 13.6746C279.037 13.6686 278.88 13.6835 278.723 13.6885C278.34 13.7014 278.34 13.7004 277.897 13.6418C277.837 13.6339 277.759 13.6229 277.699 13.6249C277.09 13.6448 276.477 13.6617 275.872 13.6905C275.526 13.7064 275.291 13.6776 275.046 13.6358C274.996 13.6269 274.908 13.6229 274.843 13.6249C274.156 13.6478 273.473 13.6736 272.786 13.6965C272.643 13.7014 272.504 13.6845 272.389 13.6587C272.205 13.6179 271.988 13.6229 271.757 13.6319C271.227 13.6527 271.222 13.6517 270.908 13.604C270.844 13.5941 270.788 13.5812 270.719 13.5762C270.654 13.5712 270.571 13.5742 270.502 13.5762C270.198 13.5862 269.893 13.5971 269.589 13.608C269.284 13.6189 268.975 13.6249 268.675 13.6418C268.306 13.6627 268.131 13.5981 267.873 13.5683C267.494 13.5812 267.107 13.5891 266.733 13.61C266.447 13.6259 266.313 13.5822 266.124 13.5593C266.06 13.5514 265.99 13.5345 265.93 13.5365C265.243 13.5583 264.556 13.5822 263.873 13.609C263.707 13.615 263.596 13.607 263.458 13.5832C263.148 13.5295 263.135 13.5315 262.618 13.5514C262.392 13.5603 262.175 13.5683 261.981 13.5275C261.811 13.4908 261.603 13.4818 261.358 13.4937C261.059 13.5086 260.75 13.5166 260.445 13.5265C260.141 13.5375 259.836 13.5524 259.532 13.5573C259.287 13.5623 259.139 13.5156 258.946 13.4918C258.886 13.4848 258.803 13.4838 258.733 13.4858C258.429 13.4947 258.115 13.5017 257.82 13.5186C257.46 13.5394 257.262 13.4848 257.008 13.453C256.953 13.446 256.86 13.45 256.791 13.453C256.256 13.4709 255.725 13.4908 255.19 13.5096C255.001 13.4828 254.807 13.457 254.618 13.4301C254.314 13.4401 254.009 13.451 253.705 13.4609C253.474 13.4689 253.239 13.4719 253.022 13.4868C252.741 13.5067 252.602 13.4599 252.413 13.4371C252.348 13.4291 252.279 13.4123 252.219 13.4142C251.836 13.4252 251.453 13.4371 251.075 13.454C250.715 13.4709 250.572 13.3814 250.277 13.3824C249.973 13.3834 249.659 13.3964 249.364 13.4142C249.022 13.4351 248.782 13.4033 248.538 13.3606C248.487 13.3516 248.399 13.3467 248.335 13.3486C247.952 13.3606 247.574 13.3755 247.191 13.3874C247.126 13.3894 247.048 13.3844 246.983 13.3785C246.254 13.3198 246.254 13.3188 245.936 13.3308C245.71 13.3387 245.479 13.3487 245.249 13.3536C245.184 13.3556 245.105 13.3467 245.045 13.3387C244.566 13.2781 244.566 13.2771 244.22 13.289C243.915 13.3 243.611 13.3109 243.306 13.3218C243.117 13.295 242.923 13.2692 242.734 13.2423C242.356 13.2552 241.968 13.2652 241.595 13.2831C241.419 13.291 241.304 13.288 241.17 13.2632C241.004 13.2334 240.838 13.1986 240.561 13.2155C240.266 13.2334 239.952 13.2354 239.652 13.2503C239.293 13.2682 239.145 13.1777 238.854 13.1787C238.55 13.1797 238.236 13.1926 237.941 13.2105C237.599 13.2314 237.36 13.1996 237.115 13.1569C237.064 13.1479 236.977 13.143 236.912 13.1449C236.072 13.1738 235.237 13.2026 234.398 13.2334C233.881 13.2523 233.881 13.2533 232.898 13.1986C232.829 13.1946 232.755 13.1907 232.686 13.1926C232.382 13.2016 232.068 13.2085 231.773 13.2254C231.413 13.2463 231.214 13.1926 230.961 13.1598C230.905 13.1529 230.818 13.1569 230.744 13.1588C230.513 13.1658 230.287 13.1748 230.056 13.1827C229.752 13.1936 229.448 13.2046 229.143 13.2155C228.954 13.1897 228.76 13.1628 228.571 13.137C228.193 13.1499 227.805 13.1569 227.431 13.1777C227.145 13.1936 227.012 13.1519 226.822 13.128C226.758 13.1201 226.689 13.1032 226.629 13.1042C225.941 13.1261 225.254 13.1489 224.571 13.1767C224.29 13.1887 224.161 13.1439 223.971 13.1211C223.907 13.1141 223.833 13.1012 223.773 13.1032C223.316 13.1171 222.86 13.134 222.403 13.1509C222.145 13.1608 222.145 13.1608 221.582 13.0992C221.517 13.0923 221.443 13.0853 221.379 13.0873C219.93 13.137 218.486 13.1897 217.037 13.2393C216.89 13.2443 216.756 13.2294 216.641 13.2026C216.521 13.1757 216.387 13.1618 216.239 13.1668C215.63 13.1877 215.017 13.2066 214.412 13.2324C214.163 13.2433 213.965 13.2304 213.794 13.1956C213.665 13.1698 213.545 13.1598 213.384 13.1658C213.079 13.1777 212.775 13.1877 212.47 13.1986C212.166 13.2095 211.861 13.2205 211.557 13.2314C211.252 13.2423 210.943 13.2483 210.643 13.2652C210.274 13.286 210.094 13.2244 209.841 13.1936C209.384 13.2085 208.927 13.2234 208.475 13.2393C207.866 13.2602 207.257 13.2831 206.648 13.3029C206.593 13.3049 206.524 13.287 206.459 13.2781C206.27 13.2533 206.131 13.2185 205.85 13.2294C204.484 13.2821 203.11 13.3268 201.739 13.3785C201.453 13.3894 201.329 13.3467 201.135 13.3238C201.071 13.3169 200.997 13.3029 200.937 13.3049C200.176 13.3298 199.414 13.3576 198.653 13.3844C198.344 13.3954 198.344 13.3954 197.827 13.3337C197.767 13.3268 197.689 13.3178 197.624 13.3198C196.632 13.3536 195.645 13.3894 194.653 13.4242C194.506 13.4291 194.372 13.4152 194.252 13.3884C194.137 13.3616 193.998 13.3467 193.855 13.3516C192.942 13.3834 192.024 13.4142 191.115 13.449C190.87 13.459 190.667 13.45 190.492 13.4142C190.367 13.3884 190.243 13.3775 190.086 13.3834C188.716 13.4321 187.346 13.4788 185.975 13.5305C185.712 13.5404 185.528 13.5216 185.362 13.4888C185.228 13.4629 185.113 13.458 184.947 13.4619C184.771 13.4669 184.665 13.4778 184.568 13.5076C184.444 13.5464 184.365 13.5951 184.07 13.5981C183.766 13.6011 183.457 13.613 183.157 13.6299C182.871 13.6468 182.737 13.6021 182.557 13.5752C182.423 13.5563 182.299 13.5534 182.128 13.5623C181.971 13.5703 181.874 13.5871 181.782 13.6189C181.579 13.6865 181.56 13.6865 181.311 13.6438C181.178 13.6209 181.058 13.603 180.91 13.607C180.301 13.6269 179.692 13.6488 179.083 13.6716C178.732 13.6845 178.728 13.6865 178.465 13.6368C178.336 13.612 178.211 13.6001 178.059 13.606C176.384 13.6656 174.71 13.7233 173.035 13.7859C172.777 13.7958 172.601 13.775 172.417 13.7451C172.357 13.7352 172.297 13.7213 172.228 13.7173C172.158 13.7133 172.08 13.7173 172.006 13.7193C170.788 13.762 169.566 13.8028 168.352 13.8505C168.075 13.8614 167.928 13.8296 167.739 13.8038C167.674 13.7948 167.619 13.7809 167.55 13.7769C167.48 13.774 167.397 13.7809 167.323 13.7839C166.106 13.8266 164.883 13.8674 163.67 13.9151C163.379 13.926 163.254 13.8843 163.065 13.8624C163.001 13.8545 162.932 13.8395 162.872 13.8415C162.489 13.8525 162.11 13.8674 161.727 13.8803C160.814 13.9131 159.9 13.9439 158.987 13.9777C158.636 13.9906 158.484 13.9021 158.189 13.9061C157.806 13.9111 157.428 13.931 157.045 13.9449C156.74 13.9558 156.436 13.9658 156.131 13.9777C155.831 13.9886 155.831 13.9886 155.084 13.931C155.02 13.926 154.941 13.919 154.877 13.921C153.811 13.9578 152.741 13.9946 151.679 14.0343C151.435 14.0433 151.232 14.0383 151.057 14.0015C150.932 13.9757 150.803 13.9628 150.651 13.9687C149.05 14.0254 147.454 14.082 145.853 14.1377C145.793 14.1397 145.714 14.1297 145.654 14.1218C145.525 14.1039 145.401 14.083 145.276 14.0641C145.184 14.087 145.064 14.1079 145.004 14.1337C144.921 14.1685 144.81 14.1784 144.635 14.1844C144.459 14.1903 144.349 14.1883 144.21 14.1625C144.044 14.1307 143.874 14.1059 143.601 14.1158C141.927 14.1784 140.252 14.2351 138.577 14.2967C138.301 14.3066 138.171 14.2629 137.978 14.24C137.913 14.2331 137.839 14.2221 137.779 14.2241C137.092 14.247 136.409 14.2718 135.722 14.2957C133.816 14.3632 131.911 14.4278 130.01 14.4994C129.664 14.5123 129.429 14.4875 129.184 14.4447C129.134 14.4358 129.046 14.4308 128.982 14.4328C126.315 14.5262 123.648 14.6206 120.986 14.715C120.843 14.72 120.705 14.7041 120.59 14.6782C120.47 14.6514 120.336 14.6385 120.188 14.6435C118.97 14.6862 117.753 14.7289 116.535 14.7727C116.23 14.7836 116.225 14.7846 115.912 14.7369C115.847 14.7269 115.778 14.7081 115.727 14.7101C115.621 14.715 115.52 14.7399 115.446 14.7736C115.372 14.8094 115.257 14.8194 115.086 14.8263C114.911 14.8333 114.795 14.8303 114.662 14.8064C114.491 14.7766 114.334 14.7478 114.057 14.7577C110.556 14.8849 107.054 15.0072 103.552 15.1334C103.271 15.1433 103.142 15.1016 102.948 15.0787C102.883 15.0718 102.819 15.0618 102.75 15.0598C102.676 15.0578 102.597 15.0638 102.524 15.0668C96.8122 15.2685 91.1009 15.4712 85.3895 15.673C85.0481 15.6849 85.0527 15.6849 84.679 15.7763C84.6329 15.7872 84.5729 15.8021 84.5083 15.8041C82.7598 15.8677 81.0067 15.9293 79.2537 15.9909C78.4924 16.0178 77.7313 16.0456 76.97 16.0714C76.6979 16.0804 76.6979 16.0804 76.0474 16.1877C75.992 16.1967 75.9273 16.2086 75.8628 16.2106C72.8179 16.3189 69.773 16.4272 66.7236 16.5335C66.4837 16.5415 66.29 16.5594 66.1792 16.6071C66.1008 16.6408 65.9993 16.6607 65.8471 16.6667C63.7157 16.7422 61.5844 16.8187 59.4483 16.8923C59.1946 16.9012 59.0423 16.929 58.9177 16.9708C58.8762 16.9847 58.8393 17.0006 58.7793 17.0105C58.724 17.0194 58.6409 17.0224 58.5717 17.0254C56.7448 17.09 54.918 17.1566 53.0864 17.2182C52.8143 17.2271 52.7035 17.2639 52.5697 17.3027C52.5236 17.3156 52.4912 17.3335 52.4313 17.3424C52.3713 17.3504 52.2836 17.3504 52.2098 17.3523C50.6874 17.406 49.165 17.4607 47.6426 17.5143C47.3474 17.5093 47.2827 17.567 47.1397 17.6018C47.089 17.6137 47.0521 17.6296 46.9922 17.6375C46.9276 17.6455 46.8444 17.6445 46.766 17.6465C45.5481 17.6892 44.3302 17.7349 43.1076 17.7747C42.8262 17.7836 42.7708 17.8343 42.6186 17.8691C42.5678 17.88 42.5171 17.8969 42.4572 17.8999C41.6959 17.9287 40.9348 17.9555 40.1735 17.9814C39.9198 17.9903 39.9198 17.9893 39.4723 18.0877C39.4215 18.0986 39.3615 18.1106 39.2969 18.1135C38.1574 18.1553 37.0133 18.195 35.8692 18.2358C35.7216 18.2407 35.6201 18.2646 35.5463 18.2984C35.4725 18.3321 35.3664 18.354 35.2188 18.359C34.3053 18.3918 33.3918 18.4256 32.4783 18.4554C32.2246 18.4633 32.0585 18.4882 31.9478 18.5329C31.8648 18.5667 31.7633 18.5836 31.6018 18.5895C30.6884 18.6213 29.7749 18.6561 28.8569 18.6839C28.5893 18.6919 28.4508 18.7257 28.3401 18.7674C28.2524 18.8012 28.1509 18.8131 27.9802 18.8191C26.3056 18.8767 24.6263 18.9343 22.9563 18.9979C22.6749 19.0089 22.5318 18.9741 22.3473 18.9492C22.0843 18.9145 21.8399 18.8767 21.8399 18.7992C21.8399 18.7873 21.7614 18.7734 21.7061 18.7634C21.2955 18.6889 21.2955 18.6889 21.2309 18.6094C21.194 18.5607 21.1525 18.511 21.1202 18.4613C21.0602 18.3798 20.9125 18.359 20.4881 18.3739C20.3358 18.3789 20.1836 18.3858 20.0314 18.3898C19.8053 18.3967 19.6346 18.3639 19.5931 18.3043C19.57 18.2715 19.5424 18.2387 19.5193 18.2059C19.75 18.198 19.7453 18.197 20.1513 18.0768C20.322 18.0261 20.3221 18.0261 19.9945 17.9754C19.87 17.9565 19.75 17.9356 19.6162 17.9178C19.5562 17.9098 19.4778 17.9048 19.4132 17.9068C19.0303 17.9188 18.652 17.9327 18.2737 17.9466C17.6648 17.9684 17.6647 17.9684 17.0465 17.8671C16.9958 17.8591 16.9173 17.8442 16.9265 17.8363C16.9773 17.7995 17.1018 17.7836 17.2587 17.7796C17.4894 17.7737 17.7154 17.7637 17.9415 17.7558C18.0937 17.7508 18.246 17.7449 18.3982 17.7399C18.5412 17.7021 18.6889 17.6654 18.8227 17.6266C19.0349 17.567 19.0348 17.565 18.7442 17.5233C18.5597 17.4954 18.3613 17.4706 18.1721 17.4448C17.9461 17.4527 17.7154 17.4616 17.4894 17.4686C17.2033 17.4775 17.088 17.4587 17.0142 17.3941C16.9496 17.3374 17.028 17.2887 17.2495 17.2768C17.4755 17.2649 17.6878 17.2569 17.8032 17.2063C17.9139 17.1576 18.1076 17.1387 18.3475 17.1347C18.4998 17.1317 18.652 17.1248 18.8042 17.1188C19.0026 17.1109 19.1087 17.0602 19.0672 17.0035C19.0442 16.9668 18.998 16.936 18.8181 16.928C18.02 16.8932 18.0107 16.8942 17.6139 16.8267C17.577 16.8207 17.5494 16.8028 17.5633 16.7939C17.5863 16.779 17.6371 16.7571 17.6924 16.7541C18.223 16.7323 18.7535 16.7124 19.284 16.6975C19.4594 16.6925 19.5885 16.6855 19.6485 16.6488C19.7316 16.5981 19.6947 16.5514 19.5332 16.5166C19.4824 16.5057 19.3993 16.4918 19.344 16.4928C18.735 16.5107 18.1307 16.5335 17.5217 16.5514C17.4663 16.5534 17.3649 16.5365 17.3418 16.5236C17.2957 16.4997 17.3648 16.4679 17.5263 16.457C17.7385 16.4421 17.9554 16.4411 18.0984 16.3914C18.2967 16.3209 18.5412 16.2563 18.7627 16.1887C18.7996 16.1768 18.8596 16.1539 18.8458 16.1519C18.7305 16.1301 18.5966 16.1132 18.4767 16.0923C18.2737 16.0575 18.2737 16.0088 18.3198 15.9621C18.3567 15.9244 18.4951 15.9095 18.6658 15.9095C18.7396 15.9095 18.8319 15.9095 18.8919 15.9005C19.0487 15.8787 19.0995 15.8508 19.021 15.83C18.9749 15.818 18.8919 15.8012 18.8366 15.8031C17.8493 15.8359 16.8573 15.8677 15.8747 15.9085C15.584 15.9204 15.4503 15.8826 15.275 15.8558C15.1412 15.8349 15.0166 15.827 14.8505 15.8419C14.6937 15.8558 14.5415 15.8479 14.4446 15.8151C14.3662 15.7882 14.5045 15.7654 14.8782 15.7395C14.9474 15.7346 15.0258 15.7316 15.0766 15.7216C15.6117 15.6143 15.6117 15.6133 15.9808 15.5994C16.3406 15.5865 16.3407 15.5855 16.5299 15.5279C16.6175 15.501 16.7143 15.4742 16.7974 15.4464C16.8297 15.4355 16.8851 15.4156 16.8666 15.4096C16.7651 15.3788 16.6267 15.3719 16.4652 15.3788C16.1054 15.3957 15.681 15.3818 15.4918 15.4762C15.418 15.512 15.3027 15.5219 15.1366 15.5279C13.4665 15.5855 11.7964 15.6471 10.1218 15.7028C9.84959 15.7117 9.7251 15.7485 9.61899 15.7892C9.52672 15.823 9.4252 15.8329 9.24989 15.8389C9.07458 15.8449 8.93612 15.8479 8.83462 15.8151C8.77465 15.7952 8.82541 15.7674 8.96381 15.7395C9.16219 15.6998 9.12526 15.6501 9.06067 15.6034C9.01454 15.5726 8.87153 15.5507 8.71929 15.5527C8.49323 15.5567 8.27646 15.5676 8.08731 15.5279C7.97659 15.505 7.83816 15.4891 7.71359 15.4692C7.4737 15.4285 7.23379 15.3868 6.89701 15.4136C6.66634 15.4037 6.50487 15.3679 6.32034 15.3401C6.01124 15.2944 5.98356 15.2874 6.205 15.2387C6.45413 15.184 6.26033 15.1125 6.39873 15.0588C6.54636 15.0012 6.74942 14.9505 6.92934 14.8969C6.97547 14.883 7.01701 14.87 7.06315 14.8561C6.95704 14.8362 6.86017 14.8114 6.73561 14.7975C6.57414 14.7796 6.4911 14.7577 6.50032 14.6961C6.46803 14.6872 6.48178 14.71 6.51868 14.716C6.5602 14.722 6.66178 14.717 6.71252 14.7101C6.8417 14.6912 6.90622 14.6663 6.87392 14.6455C6.85547 14.6345 6.76788 14.6206 6.71252 14.6206C6.61103 14.6206 6.52339 14.6425 6.49571 14.6961C5.97901 14.7369 5.44377 14.7568 4.90861 14.7727C4.85325 14.7746 4.78409 14.7548 4.7195 14.7448C4.50729 14.711 4.50726 14.712 3.88445 14.7021C3.81986 14.7011 3.73225 14.6872 3.69996 14.6733C3.56617 14.6127 3.57082 14.5461 3.50623 14.4815C3.62618 14.4398 3.74603 14.399 3.87059 14.3583C4.11972 14.2758 4.44273 14.2033 4.63649 14.1128C4.59497 14.0641 4.5396 14.0154 4.74259 13.9757C5.31927 13.926 5.31469 13.926 5.47154 13.8783C5.91904 13.7432 6.3619 13.607 6.82786 13.4739C6.95242 13.4391 6.95244 13.4202 6.73099 13.4053C6.66179 13.4013 6.58788 13.4003 6.51407 13.4023C6.2834 13.4093 6.05273 13.4272 5.82667 13.4232C5.60062 13.4202 5.43453 13.3765 5.25 13.3496C5.06085 13.3218 4.87171 13.293 4.68256 13.2642C4.46573 13.2672 4.24894 13.295 4.03211 13.2503C3.86603 13.2155 3.65844 13.1906 3.46929 13.1618C3.6123 13.0863 3.87992 13.0287 4.08752 12.9621C4.27667 12.9015 4.28118 12.9025 4.78866 12.8558C5.02855 12.8339 5.1116 12.7216 4.90861 12.6888C4.6641 12.6491 4.4058 12.6123 4.15668 12.5745C3.93985 12.5775 3.71845 12.6044 3.51085 12.5596C3.34938 12.5259 3.16481 12.503 2.89723 12.5159C2.44512 12.5378 1.98379 12.5487 1.52706 12.5666C1.37021 12.5726 1.19946 12.5686 1.13026 12.5348C1.08413 12.511 1.21792 12.4782 1.37017 12.4712C1.60084 12.4613 1.80842 12.4493 1.92375 12.3997C2.03447 12.35 2.23744 12.3351 2.47734 12.3281C2.54193 12.3261 2.61579 12.3142 2.64809 12.3023C2.81417 12.2446 2.99872 12.1949 3.35395 12.1969C3.50158 12.1771 3.57996 12.1522 3.53383 12.1284C3.50615 12.1154 3.40931 12.0986 3.35395 12.1005C2.97104 12.1105 2.58814 12.1204 2.21446 12.1383C2.03915 12.1463 1.90529 12.1482 1.79456 12.1184C1.71614 12.0986 1.75765 12.0717 1.90528 12.0429C2.03446 12.0181 2.0714 11.9892 2.06218 11.9555C2.03911 11.877 1.90068 11.8541 1.45779 11.8591C1.13947 11.863 1.06104 11.8501 0.991836 11.7825C0.973383 11.7667 0.92733 11.7448 0.959624 11.7339C1.158 11.6663 1.28718 11.5828 1.66087 11.551C1.8085 11.5391 1.96529 11.5391 2.05756 11.5133C2.14983 11.4874 2.23291 11.4576 2.32979 11.4328C2.44974 11.4029 2.5327 11.3751 2.47734 11.3563C2.38507 11.3225 2.23749 11.3195 2.0668 11.3314C1.91917 11.3413 1.76232 11.3423 1.61007 11.3483C1.33788 11.3592 1.11649 11.3334 1.08419 11.2897C0.99654 11.1744 0.904245 11.0601 0.825817 10.9449C0.81659 10.9309 0.839594 10.913 0.876501 10.9011C1.00568 10.8594 1.14413 10.8196 1.27792 10.7789C1.43478 10.7322 1.68394 10.7411 1.89616 10.7322C2.19603 10.7193 2.19593 10.7203 2.59729 10.6249C2.75415 10.5871 3.02635 10.602 3.18782 10.5682C3.23857 10.5573 3.317 10.5394 3.30316 10.5295C3.2847 10.5166 3.19248 10.5066 3.12328 10.5007C3.05869 10.4947 2.98028 10.4917 2.91108 10.4947C2.07144 10.5235 1.23644 10.5543 0.396802 10.5821C0.253787 10.5871 0.0969265 10.5653 0.0461791 10.5344C-0.00456835 10.5056 0.0092268 10.4708 0 10.438C0.133789 10.3973 0.285972 10.3595 0.401307 10.3158C0.488962 10.282 0.590475 10.2671 0.765784 10.2651C0.996454 10.2622 1.22253 10.2502 1.48088 10.2413C1.96068 10.0962 2.43121 9.94418 2.94791 9.79909C3.15552 9.74046 3.10485 9.68083 3.14637 9.61823C3.18789 9.56059 3.49697 9.56955 3.70458 9.55265C3.87066 9.53874 3.92595 9.50694 3.86136 9.48507C3.82445 9.47216 3.74146 9.45725 3.67687 9.45725C3.52463 9.45725 3.37239 9.46619 3.22015 9.47116C3.0679 9.47613 2.8926 9.47316 2.76804 9.49005C2.64809 9.50595 2.56962 9.53973 2.49119 9.56854C2.40354 9.60034 2.28828 9.61128 2.11297 9.61327C1.88692 9.61526 1.66087 9.62419 1.43482 9.63115C1.18569 9.59239 0.927289 9.55464 0.687392 9.5139C0.641258 9.50595 0.631982 9.4831 0.636595 9.46819C0.645822 9.42943 0.576639 9.40558 0.424397 9.3867C0.295222 9.3708 0.189104 9.34795 0.069156 9.32807C0.161424 9.30124 0.262955 9.2754 0.336769 9.24658C0.498238 9.18596 0.701251 9.14225 1.05187 9.14424C1.19027 9.10548 1.30096 9.05778 1.48088 9.03095C1.65158 9.00511 1.94224 9.03094 2.07141 8.97231C2.136 8.9435 2.23294 8.9107 2.3575 8.89878C2.55587 8.8799 2.81422 8.88985 2.92956 8.8342C2.99876 8.8024 3.10021 8.77357 3.234 8.76562C3.38624 8.75668 3.54306 8.7547 3.65378 8.73582C3.71375 8.72588 3.77835 8.70998 3.77835 8.69607C3.77835 8.68713 3.68615 8.67321 3.62157 8.66725C3.56159 8.66029 3.48307 8.65532 3.41387 8.65731C3.1832 8.66327 2.95715 8.6742 2.72648 8.68017C2.66189 8.68215 2.5881 8.6752 2.5189 8.66924C2.31591 8.65334 2.32972 8.63347 2.49119 8.59769C2.65266 8.56291 2.76806 8.51819 2.90185 8.47744C3.04948 8.47049 3.23399 8.47347 3.33548 8.45459C3.50618 8.42379 3.62609 8.37907 3.7645 8.34031C3.91674 8.33435 4.07358 8.33237 4.2166 8.32144C4.27657 8.31746 4.30428 8.2956 4.35502 8.28268C4.44729 8.25784 4.52578 8.22206 4.65035 8.21014C4.85334 8.19225 5.10245 8.19921 5.2224 8.14455C5.2916 8.11275 5.39767 8.07897 5.52685 8.07699C5.88669 8.07301 6.03894 8.01834 6.22347 7.96667C6.36188 7.92792 6.65714 7.9478 6.80939 7.90904C6.91088 7.8842 6.98474 7.85339 7.08624 7.82954C7.12776 7.8196 7.21538 7.81464 7.28458 7.81166C7.66288 7.79675 8.04578 7.78582 8.42408 7.76992C8.48405 7.76694 8.53946 7.75204 8.58559 7.74011C8.68247 7.71428 8.74238 7.6785 8.86233 7.66161C8.98228 7.64471 9.15295 7.64472 9.30058 7.63975C9.77576 7.62484 9.8127 7.62881 10.0295 7.54434C10.2048 7.47578 10.6339 7.52447 10.777 7.44895C10.86 7.40523 11.0122 7.36945 11.2844 7.36449C11.6673 7.35753 12.0456 7.33865 12.4285 7.32573C12.7699 7.3138 12.7653 7.3138 13.1343 7.22138C13.3004 7.17965 13.545 7.18562 13.7618 7.17767C13.9925 7.16972 14.2047 7.1578 14.3154 7.10811C14.4261 7.05942 14.6291 7.04351 14.8644 7.03655C15.0812 7.0296 15.3258 7.03457 15.4965 6.99483C15.9117 6.89943 15.9071 6.89843 16.1977 6.88849C16.6544 6.87259 17.1111 6.85669 17.5679 6.8398C17.8724 6.82887 18.1907 6.82688 18.4767 6.80502C18.6843 6.78912 18.7765 6.73348 18.9103 6.69472C19.2886 6.67981 19.6669 6.6649 20.0452 6.65099C20.5758 6.63112 21.1109 6.61323 21.646 6.59435C21.8767 6.55659 21.9091 6.47312 22.2966 6.46914C22.5273 6.46716 22.7533 6.45424 22.984 6.44629C23.3669 6.43238 23.7452 6.41449 24.1281 6.40753C24.4188 6.40257 24.4694 6.3489 24.6217 6.31511C24.6724 6.30319 24.7186 6.2863 24.7786 6.28332C25.3783 6.2555 25.9965 6.24953 26.5824 6.20879C26.6423 6.20482 26.6977 6.18395 26.7116 6.16904C26.7208 6.16109 26.6423 6.14619 26.5916 6.13924C26.5316 6.13129 26.4532 6.12334 26.3886 6.12532C24.4833 6.1919 22.578 6.25948 20.6727 6.32606C20.4051 6.33599 20.4051 6.33499 19.7546 6.4443C19.6993 6.45325 19.6346 6.46318 19.5654 6.46616C19.2609 6.47809 18.9518 6.48505 18.652 6.49996C18.4074 6.51188 18.2045 6.49995 18.0292 6.46417C17.9046 6.43833 17.7754 6.43039 17.6186 6.43238C17.4432 6.43536 17.328 6.44629 17.2265 6.47312C17.0927 6.50989 17.0235 6.55758 16.7421 6.56752C15.4457 6.61025 14.1492 6.65795 12.8575 6.70366C12.6776 6.68975 12.5899 6.66888 12.6361 6.64404C12.6637 6.62913 12.7191 6.60926 12.7745 6.60727C13.305 6.5864 13.8402 6.56852 14.3707 6.54865C14.4445 6.54567 14.546 6.54764 14.5875 6.53771C14.7905 6.49299 14.8644 6.42045 15.2473 6.41548C15.4688 6.4125 15.6948 6.3976 15.907 6.38369C15.967 6.37971 16.0224 6.35884 16.0362 6.34394C16.0408 6.33599 15.967 6.32108 15.9116 6.31412C15.7086 6.2853 15.4734 6.32009 15.2704 6.30022C15.2012 6.29326 15.1043 6.28332 15.0904 6.2714C15.0812 6.26047 15.1596 6.24258 15.215 6.23165C15.2657 6.22171 15.3349 6.21277 15.4041 6.20979C16.0131 6.18693 16.6221 6.16308 17.2311 6.14519C17.4802 6.13824 17.6555 6.11339 17.7662 6.06768C17.8493 6.03389 17.9507 6.01601 18.1076 6.01104C19.1733 5.97428 20.239 5.93353 21.3093 5.89975C21.5769 5.8918 21.7153 5.85901 21.826 5.81628C21.9137 5.78249 22.0152 5.77057 22.1859 5.7646C23.7129 5.71293 25.2307 5.6553 26.7577 5.60561C27.0392 5.59667 27.1222 5.55394 27.2653 5.51717C27.316 5.50425 27.3482 5.48835 27.4128 5.4804C27.4774 5.47245 27.5604 5.47344 27.6389 5.47145C28.8568 5.42872 30.0748 5.38302 31.2974 5.34327C31.5834 5.33432 31.6387 5.28463 31.7863 5.24985C31.837 5.23892 31.8832 5.22104 31.9432 5.21806C32.8566 5.18427 33.7701 5.15247 34.6835 5.11968C35.2925 5.09782 35.9014 5.07595 36.5104 5.05509C36.8103 5.04515 36.8103 5.04415 37.2163 4.94975C37.2624 4.93882 37.3271 4.9259 37.387 4.92291C39.1401 4.85932 40.8886 4.79871 42.6416 4.73611C42.7893 4.73114 42.8954 4.70827 42.9692 4.67449C43.043 4.6407 43.1492 4.61784 43.2922 4.61288C44.6624 4.56319 46.0325 4.5145 47.4073 4.4678C47.6564 4.45985 47.8317 4.436 47.9424 4.39128C48.0255 4.35749 48.127 4.33961 48.2838 4.33464C49.654 4.28694 51.0243 4.23626 52.3991 4.19055C52.662 4.1816 52.7911 4.14782 52.9203 4.10807C52.9665 4.09416 53.0034 4.0713 53.0587 4.06931C53.7415 4.04149 54.4197 4.01267 55.1071 3.99379C55.3931 3.98584 55.49 3.9441 55.6054 3.90435C55.6976 3.87256 55.8038 3.86163 55.9791 3.85765C56.362 3.84871 56.7403 3.83182 57.1139 3.81493C57.1693 3.81195 57.2385 3.79008 57.2431 3.77617C57.2524 3.75034 57.1462 3.73245 56.9709 3.7235C55.144 3.78809 53.3125 3.85268 51.4856 3.91727C51.1857 3.9282 51.1857 3.92821 50.7798 4.02261C50.7336 4.03354 50.669 4.04646 50.6044 4.04945C48.8513 4.11205 47.1029 4.17366 45.3498 4.23626C45.2021 4.24123 45.096 4.26409 45.0222 4.29787C44.9484 4.33166 44.8422 4.35452 44.6992 4.35948C43.0245 4.41911 41.3499 4.47973 39.6706 4.53637C39.4215 4.54432 39.2463 4.56716 39.1355 4.61288C39.0525 4.64666 38.951 4.66456 38.7941 4.66952C37.1933 4.72517 35.597 4.7838 33.9915 4.83746C33.83 4.84242 33.7102 4.81361 33.7194 4.78678C33.724 4.77286 33.7931 4.75002 33.8485 4.74803C34.6835 4.71524 35.514 4.68145 36.3536 4.65661C36.635 4.64866 36.718 4.60493 36.861 4.56816C36.9072 4.55524 36.9441 4.53835 37.0041 4.5314C37.0687 4.52345 37.1517 4.52444 37.2301 4.52246C39.2093 4.4519 41.1885 4.38036 43.1723 4.31378C43.4583 4.30384 43.5136 4.25514 43.6612 4.22036C43.7119 4.20844 43.7581 4.19056 43.8181 4.18857C44.4271 4.16472 45.036 4.14385 45.645 4.12298C46.7107 4.08522 47.7763 4.04746 48.8466 4.00969C49.1557 3.99876 49.1558 3.99876 49.5525 3.90535C49.5986 3.89442 49.6633 3.88052 49.7233 3.87853C52.542 3.77816 55.3609 3.6778 58.1797 3.57842C58.3273 3.57346 58.4334 3.5506 58.5072 3.51681C58.581 3.48402 58.6871 3.46017 58.8301 3.45421C62.6408 3.31906 66.4468 3.18391 70.2575 3.05075C70.5066 3.04181 70.6819 3.02094 70.7926 2.97424C70.8711 2.94045 70.9772 2.92257 71.134 2.9166C75.323 2.76854 79.512 2.62048 83.7055 2.47142C86.5243 2.37205 89.3432 2.27069 92.1619 2.17331C92.4203 2.16436 92.5586 2.13355 92.6878 2.09281C92.7293 2.0789 92.7709 2.05604 92.8262 2.05405C93.4306 2.02921 94.0349 2.00636 94.6393 1.9835C94.8284 2.01033 95.0176 2.03617 95.2067 2.063C95.3497 2.02524 95.4882 1.98649 95.6312 1.94872C96.5447 1.91991 97.4443 1.87519 98.367 1.86128C98.4269 1.86028 98.4915 1.87917 98.5561 1.8891C98.9851 1.95171 99.2296 1.94674 99.5018 1.86327C99.5987 1.83345 99.6817 1.80663 99.8294 1.80166C100.286 1.78377 100.748 1.77184 101.2 1.75098C101.444 1.74004 101.647 1.74998 101.822 1.78575C101.947 1.81159 102.076 1.82253 102.228 1.81656C103.068 1.78675 103.903 1.75793 104.743 1.72613C104.803 1.72415 104.858 1.70725 104.904 1.69532C105.001 1.66949 105.084 1.64167 105.176 1.61484C105.301 1.63173 105.439 1.64465 105.541 1.66651C105.67 1.69235 105.79 1.69234 105.965 1.68539C109.315 1.56515 112.669 1.44789 116.018 1.32666C116.304 1.31672 116.428 1.35846 116.622 1.38032C116.687 1.38827 116.751 1.3982 116.821 1.40019C116.894 1.40218 116.973 1.39622 117.047 1.39324C119.561 1.30381 122.075 1.21536 124.59 1.12592C124.922 1.114 124.922 1.114 125.415 1.17561C125.475 1.18356 125.554 1.1925 125.618 1.18952C126.762 1.15077 127.907 1.10904 129.046 1.06929C129.194 1.06432 129.318 1.08021 129.452 1.10307C129.715 1.14779 129.733 1.14779 129.927 1.08221C130.019 1.0514 130.116 1.03251 130.269 1.02357C130.435 1.01363 130.569 1.01662 130.698 1.03451C130.882 1.05935 131.016 1.10108 131.297 1.09015C132.515 1.04345 133.738 1.00469 134.951 0.956996C135.228 0.946066 135.376 0.97985 135.56 1.00469C135.625 1.01364 135.685 1.02755 135.754 1.03053C135.823 1.03351 135.906 1.02655 135.98 1.02357C137.502 0.969907 139.029 0.91725 140.547 0.859614C140.833 0.848683 140.958 0.891405 141.152 0.913267C141.216 0.921216 141.29 0.935136 141.35 0.933148C142.263 0.902343 143.182 0.869541 144.095 0.836748C144.423 0.824824 144.423 0.825817 144.921 0.886434C144.981 0.894384 145.059 0.902335 145.124 0.900348C146.19 0.86358 147.26 0.825818 148.326 0.788057C148.653 0.776133 148.653 0.776135 149.599 0.827808C149.668 0.831783 149.742 0.837753 149.811 0.835766C151.029 0.793036 152.251 0.751294 153.469 0.705583C153.714 0.696639 153.917 0.704587 154.092 0.740361C154.217 0.766197 154.346 0.777134 154.498 0.771172C155.868 0.72248 157.243 0.675777 158.609 0.624103C158.872 0.614166 159.042 0.636019 159.227 0.664837C159.287 0.674774 159.347 0.688689 159.416 0.692664C159.485 0.696639 159.564 0.692661 159.638 0.68968C161.008 0.640988 162.383 0.595279 163.748 0.542612C164.025 0.531681 164.173 0.565465 164.357 0.590308C164.422 0.599252 164.491 0.61714 164.546 0.616146C165.081 0.599253 165.616 0.584352 166.147 0.559509C166.433 0.545597 166.558 0.5913 166.751 0.613162C166.816 0.620118 166.89 0.635031 166.95 0.633044C168.094 0.594289 169.238 0.553549 170.378 0.511813C170.539 0.505851 170.659 0.514786 170.788 0.540622C170.959 0.575403 171.157 0.589315 171.406 0.578384C171.937 0.555529 172.472 0.539634 173.007 0.520753C173.321 0.509822 173.321 0.509825 174.281 0.561499C174.35 0.565474 174.424 0.571432 174.493 0.569444C175.406 0.537645 176.324 0.506842 177.233 0.472062C177.478 0.462125 177.681 0.471066 177.856 0.506839C177.98 0.532676 178.105 0.543613 178.262 0.53765C179.101 0.507839 179.937 0.478025 180.776 0.448213C181.081 0.437283 181.385 0.418397 181.69 0.418397C181.911 0.419391 182.073 0.467087 182.271 0.490937C182.326 0.497893 182.419 0.489952 182.492 0.487965C183.558 0.450203 184.628 0.41542 185.689 0.37269C185.966 0.361759 186.114 0.395544 186.298 0.420386C186.363 0.42933 186.432 0.447218 186.488 0.446224C186.87 0.435293 187.249 0.420386 187.632 0.407468C188.088 0.391568 188.55 0.379644 189.002 0.357782C189.371 0.339895 189.509 0.426345 189.805 0.429327C190.031 0.432308 190.261 0.415417 190.487 0.407468C190.944 0.391568 191.401 0.373683 191.857 0.359771C192.019 0.354803 192.144 0.338896 192.194 0.303122C192.204 0.296166 192.125 0.281267 192.074 0.272323C191.461 0.170964 191.461 0.170959 190.843 0.192821C190.46 0.206733 190.081 0.220648 189.698 0.232572C189.634 0.23456 189.56 0.226611 189.495 0.220648C189.311 0.203755 189.329 0.183883 189.486 0.148109C189.643 0.112335 189.763 0.0686153 189.897 0.0278729C190.086 0.0537095 190.271 0.0795369 190.46 0.105374C190.612 0.100405 190.764 0.0944514 190.916 0.0894829C191.678 0.0636462 192.439 0.0368139 193.2 0.0129647C193.255 0.0109772 193.325 0.0308545 193.389 0.0407917C193.574 0.0696095 193.74 0.0944456 194.007 0.0835147C194.69 0.0546969 195.378 0.0338289 196.06 0.00898591C196.36 -0.00194498 196.36 -0.00194401 196.886 0.0596665C196.946 0.0666225 197.025 0.0745727 197.089 0.0725853C197.777 0.0497298 198.459 0.0248898 199.147 0.00104054C199.294 -0.00392805 199.437 0.00898979 199.544 0.0378076C199.585 0.0497322 199.576 0.0696027 199.751 0.232572C200.295 0.364737 200.669 0.350832 201.047 0.338907C201.209 0.333938 201.352 0.328965 201.458 0.309091C201.513 0.29816 201.583 0.282258 201.583 0.269339C201.583 0.259402 201.481 0.2435 201.417 0.241512C200.96 0.221638 200.526 0.26338 200.079 0.272323C199.871 0.276298 199.691 0.241518 199.654 0.184876C199.645 0.168976 199.631 0.152084 199.617 0.136185C199.603 0.120285 199.594 0.103393 199.58 0.0874935C199.401 0.0825249 199.294 0.100409 199.216 0.134195C199.151 0.162019 199.059 0.193818 198.934 0.208724C198.81 0.224624 198.639 0.221648 198.487 0.226616C198.339 0.231585 198.178 0.244502 198.04 0.237546C197.901 0.229596 197.79 0.200773 197.661 0.182886C197.601 0.173943 197.527 0.16103 197.467 0.163017C196.937 0.17991 196.411 0.196797 195.885 0.218659C195.608 0.230583 195.47 0.188854 195.295 0.163017C195.156 0.143143 195.018 0.148105 194.995 0.193816C194.935 0.303125 195.147 0.348833 195.617 0.327965C196.005 0.310078 196.356 0.307107 196.66 0.374679C196.702 0.383623 196.798 0.387596 196.858 0.385609C197.237 0.373684 197.61 0.358777 197.989 0.346852C198.058 0.344865 198.132 0.348833 198.196 0.352808C199.138 0.406469 199.138 0.407468 199.456 0.395544C199.608 0.389581 199.756 0.384612 199.742 0.233567C200.032 0.0715911 200.494 0.0606621 200.941 0.0368129C201.232 0.0219071 201.356 0.0656327 201.546 0.0884882C201.61 0.0964379 201.68 0.112334 201.739 0.110347C202.731 0.0775544 203.719 0.0427694 204.706 0.00600185C204.872 3.95398e-05 204.992 0.00600282 205.121 0.0318395C205.287 0.0646322 205.472 0.0855046 205.735 0.07358C206.261 0.0497308 206.796 0.0348284 207.331 0.014954C207.603 0.00501686 207.603 0.00500667 208.152 0.0666172C208.212 0.0735732 208.29 0.0815234 208.355 0.079536C208.89 0.0626428 209.421 0.041781 209.951 0.0238941C210.099 0.0189255 210.233 0.0328361 210.348 0.0596665C210.463 0.0864969 210.602 0.100407 210.745 0.0954389C211.28 0.0775519 211.811 0.0576839 212.341 0.039797C212.406 0.0378095 212.484 0.0447651 212.544 0.0517211C213.107 0.113332 213.107 0.113321 213.365 0.103384C213.744 0.0884785 214.131 0.0815302 214.505 0.0616559C214.869 0.0417815 215.058 0.0994123 215.307 0.131211C215.99 0.108356 216.678 0.08948 217.356 0.0616559C217.633 0.0497312 217.78 0.082521 217.965 0.108358C218.029 0.117301 218.094 0.136184 218.154 0.13519C218.385 0.131215 218.611 0.120286 218.837 0.112336C219.063 0.104387 219.294 0.0964379 219.52 0.0884882C219.778 0.117306 219.949 0.184878 220.318 0.162022C220.539 0.14811 220.774 0.145129 221 0.137179C221.226 0.12923 221.457 0.121281 221.683 0.113331C221.835 0.108363 221.992 0.105377 222.14 0.0964336C222.412 0.0815278 222.546 0.130226 222.74 0.152088C222.804 0.159044 222.878 0.17096 222.938 0.168973C223.395 0.155061 223.856 0.143137 224.304 0.120282C224.65 0.102395 224.885 0.13221 225.129 0.173946C225.18 0.18289 225.268 0.187858 225.332 0.185871C225.868 0.168977 226.398 0.148103 226.929 0.130217C227.072 0.125248 227.21 0.141147 227.325 0.166984C227.445 0.193814 227.579 0.206742 227.727 0.201773C228.257 0.183887 228.792 0.164006 229.323 0.146119C229.388 0.144132 229.466 0.152083 229.526 0.160033C230.043 0.221643 230.043 0.222638 230.347 0.210713C230.421 0.207732 230.499 0.205737 230.573 0.202756C230.952 0.188844 231.344 0.183882 231.713 0.160033C232.137 0.133203 232.446 0.16699 232.746 0.223632C233.124 0.211708 233.512 0.20475 233.881 0.184876C234.158 0.16997 234.305 0.207729 234.49 0.232572C234.555 0.241516 234.624 0.259403 234.679 0.257415C235.214 0.240522 235.749 0.225622 236.275 0.200779C236.561 0.186867 236.686 0.231576 236.88 0.254431C236.944 0.262381 237.013 0.2763 237.073 0.274313C237.378 0.266363 237.683 0.254433 237.987 0.243502C238.342 0.230583 238.342 0.231576 238.813 0.292193C239.034 0.321011 239.256 0.298154 239.473 0.291198C239.703 0.283249 239.92 0.277288 240.104 0.318031C240.22 0.343867 240.358 0.359767 240.501 0.355792C240.806 0.346849 241.115 0.33791 241.415 0.323004C241.655 0.311079 241.862 0.319025 242.037 0.355792C242.162 0.381629 242.291 0.394555 242.444 0.388593C243.126 0.364744 243.814 0.339891 244.496 0.317036C244.556 0.315049 244.639 0.323995 244.695 0.332939C244.824 0.350826 244.949 0.370696 245.073 0.39057C245.373 0.381627 245.682 0.377662 245.977 0.36375C246.291 0.349838 246.577 0.344868 246.822 0.399522C246.872 0.411447 246.946 0.428331 247.006 0.427337C247.237 0.423362 247.463 0.413428 247.689 0.405478C247.915 0.397529 248.146 0.38958 248.372 0.38163C248.635 0.406473 248.801 0.47802 249.17 0.455164C249.391 0.441252 249.627 0.438271 249.853 0.430321C250.079 0.422371 250.309 0.413429 250.535 0.406473C250.609 0.404486 250.692 0.399514 250.757 0.403489C250.826 0.407464 250.886 0.421379 250.946 0.431316C251.131 0.460134 251.301 0.488955 251.564 0.472062C251.786 0.45815 252.021 0.455168 252.247 0.446224C252.556 0.435293 252.556 0.435295 253.068 0.497899C253.276 0.523736 253.511 0.489951 253.709 0.511813C253.843 0.526719 253.959 0.551556 254.088 0.568449C254.143 0.575405 254.231 0.578382 254.295 0.576395C254.6 0.567451 254.909 0.558512 255.209 0.543606C255.453 0.531682 255.656 0.543605 255.827 0.579379C255.952 0.605216 256.076 0.616152 256.233 0.61019C256.994 0.582366 257.755 0.558509 258.512 0.527704C258.77 0.516773 258.978 0.53367 259.121 0.569444C259.365 0.631055 259.711 0.558515 259.965 0.608201C260.122 0.639006 260.279 0.674782 260.565 0.659876C261.091 0.634039 261.626 0.620119 262.157 0.602232C262.346 0.629063 262.535 0.655899 262.729 0.682729C263.033 0.671798 263.338 0.660861 263.642 0.650924C263.868 0.642974 264.099 0.634031 264.325 0.627075C264.399 0.625088 264.477 0.621112 264.546 0.626081C264.615 0.631049 264.671 0.64397 264.736 0.653908C265.054 0.7026 265.054 0.703598 265.58 0.683724C265.806 0.674781 266.023 0.668818 266.212 0.708567C266.387 0.745335 266.595 0.752286 266.835 0.741355C267.287 0.721481 267.743 0.706576 268.205 0.692664C268.348 0.687696 268.482 0.704589 268.602 0.730426C268.781 0.771168 269.003 0.767194 269.229 0.756263C269.529 0.742351 269.824 0.728442 270.078 0.784091C270.129 0.796015 270.207 0.812899 270.262 0.811905C270.641 0.803956 271.024 0.797998 271.393 0.779117C271.762 0.760236 271.942 0.821845 272.195 0.851656C272.574 0.838738 272.957 0.825818 273.335 0.8129C273.409 0.809919 273.496 0.800981 273.561 0.805949C273.833 0.826817 273.99 0.901344 274.364 0.878489C274.58 0.86557 274.816 0.861601 275.042 0.858619C275.102 0.857626 275.18 0.874511 275.222 0.887429C275.245 0.894385 275.222 0.913264 275.194 0.923201C275.111 0.951025 275.009 0.97687 274.936 1.00569C274.926 1.00966 275.014 1.02754 275.065 1.03549C275.189 1.05338 275.332 1.0504 275.499 1.04245C275.642 1.0355 275.789 1.04941 275.891 1.07922C275.932 1.09115 275.918 1.11102 275.831 1.1766C275.831 1.2253 275.928 1.20343 275.96 1.17163C276.011 1.12592 275.914 1.11102 275.729 1.13586C275.6 1.15375 275.535 1.17958 275.568 1.20045C275.586 1.21138 275.674 1.2253 275.831 1.1766C276.237 1.11698 276.541 1.10606 276.846 1.09512C276.924 1.09214 277.016 1.0822 277.072 1.08816C277.27 1.11201 277.455 1.14083 277.648 1.16766C277.87 1.1617 278.077 1.14679 278.294 1.18554C278.599 1.2402 278.613 1.23523 278.908 1.2243C279.06 1.21834 279.212 1.21338 279.365 1.20841C279.517 1.20344 279.637 1.21834 279.771 1.2412C280.043 1.2879 280.066 1.2879 280.246 1.2243C280.352 1.18555 280.426 1.17263 280.559 1.19052C281.002 1.25113 281.007 1.25511 281.385 1.23722C281.699 1.22231 281.994 1.21834 282.225 1.27498C282.382 1.31473 282.432 1.30579 282.557 1.26405C282.889 1.15375 283.041 1.15573 283.664 1.23523C283.955 1.27299 284.255 1.23225 284.55 1.22728C284.799 1.22331 284.974 1.24715 284.993 1.30976C285.007 1.34851 285.048 1.37634 285.214 1.38926C285.279 1.39423 285.357 1.40118 285.422 1.3992C285.805 1.38727 286.183 1.37336 286.566 1.35944C286.76 1.35249 286.866 1.30579 286.829 1.24418C286.788 1.1786 286.861 1.15474 287.138 1.13586C287.304 1.12493 287.438 1.12692 287.572 1.14481C287.719 1.16468 287.678 1.18257 287.549 1.21834C287.24 1.30579 287.277 1.35944 287.673 1.42006C287.812 1.44093 287.922 1.45982 287.955 1.49062C287.973 1.50652 287.955 1.52739 287.996 1.53931C288.222 1.60589 288.536 1.64863 288.887 1.68043C289.223 1.6536 289.454 1.6983 289.712 1.73408C289.915 1.7619 290.155 1.73806 290.372 1.72812C290.617 1.71719 290.82 1.72514 290.995 1.76191C291.12 1.78774 291.249 1.79966 291.401 1.79469C291.705 1.78376 292.014 1.77681 292.314 1.76091C292.573 1.747 292.766 1.76688 292.928 1.80066C293.131 1.84339 293.357 1.81457 293.569 1.82053C293.855 1.82749 293.998 1.91593 294.372 1.89208C294.593 1.87816 294.824 1.8732 295.055 1.86922C295.115 1.86823 295.189 1.88512 295.239 1.89705C295.484 1.9517 295.77 1.94872 296.084 1.93282C296.3 1.92189 296.513 1.91196 296.725 1.94972C297.075 2.01332 297.463 2.06897 297.832 2.1276C297.883 2.17331 297.846 2.22696 298.109 2.25379C298.247 2.2677 298.376 2.28858 298.483 2.31143C298.612 2.33826 298.732 2.34522 298.898 2.33827C299.198 2.32435 299.511 2.32136 299.807 2.30348C300.079 2.28758 300.249 2.32038 300.415 2.35119C300.549 2.37603 300.674 2.38795 300.835 2.37006C301.001 2.35317 301.121 2.36409 301.255 2.39092C301.444 2.42769 301.458 2.42372 302.086 2.43465C302.15 2.43565 302.229 2.45055 302.265 2.46346C302.284 2.47042 302.242 2.49031 302.21 2.50024C302.169 2.51217 302.104 2.52607 302.044 2.52905C301.361 2.55489 300.674 2.57774 299.991 2.60358C299.922 2.60656 299.848 2.61353 299.797 2.62346C299.742 2.63439 299.673 2.64929 299.673 2.6632C299.673 2.67314 299.765 2.68507 299.83 2.69202C300.033 2.71488 300.273 2.6801 300.471 2.70594C300.605 2.72283 300.715 2.74667 300.849 2.76257C300.904 2.76953 300.992 2.76854 301.061 2.76655C301.292 2.7596 301.518 2.74966 301.749 2.7437C301.813 2.74271 301.887 2.75265 301.947 2.7606C302.39 2.82022 302.39 2.82022 302.773 2.8073C302.925 2.80233 303.087 2.78742 303.23 2.79338C303.368 2.79935 303.488 2.82618 303.613 2.84307C303.871 2.87884 304.115 2.91362 304.134 2.99113C304.143 3.02095 304.295 3.04678 304.448 3.04876C304.595 3.05075 304.752 3.03983 304.904 3.03387C305.264 3.02194 305.264 3.02194 305.73 3.08256C305.859 3.09945 305.998 3.10144 306.164 3.0915C306.228 3.08753 306.307 3.0915 306.376 3.09647C306.602 3.11138 306.602 3.13025 306.454 3.16603C306.247 3.2187 306.265 3.22367 306.847 3.26838C307.068 3.28528 307.239 3.31708 307.423 3.3449C307.723 3.38962 307.719 3.38961 307.52 3.44824C307.474 3.46116 307.433 3.47508 307.386 3.48899C307.253 3.52774 307.146 3.56948 306.87 3.57345C306.565 3.57743 306.261 3.59333 305.956 3.60426C305.661 3.61519 305.583 3.63903 305.61 3.70661C305.642 3.78809 305.703 3.79704 306.233 3.79604C306.385 3.79604 306.519 3.80399 306.634 3.83082C306.579 3.86262 306.478 3.88746 306.33 3.89342C305.952 3.90833 305.569 3.92125 305.19 3.93417C304.886 3.9451 304.581 3.95603 304.277 3.96696C304.088 3.97391 303.968 4.02559 304.019 4.08323C304.046 4.11602 304.069 4.14881 304.092 4.18161C304.143 4.24719 304.24 4.26409 304.549 4.26111C304.628 4.26011 304.701 4.25216 304.775 4.25414C305.075 4.2611 305.218 4.34358 305.578 4.32668C305.878 4.31277 306.192 4.30979 306.487 4.29191C306.759 4.27601 306.911 4.31179 307.1 4.33862C307.165 4.34756 307.234 4.36643 307.29 4.36544C307.672 4.35451 308.055 4.34359 308.429 4.32471C308.604 4.31676 308.71 4.32272 308.849 4.34657C309.181 4.4042 309.19 4.40122 309.684 4.38333C310.044 4.36942 310.048 4.37141 310.51 4.43202C310.639 4.44892 310.777 4.44891 310.943 4.44096C311.16 4.43103 311.386 4.41513 311.612 4.43003C311.681 4.43401 311.769 4.44594 311.792 4.45886C311.806 4.4678 311.741 4.48966 311.686 4.49662C311.28 4.54829 310.805 4.53935 310.362 4.56022C310.224 4.56618 310.085 4.5473 309.97 4.52047C309.85 4.49364 309.721 4.48271 309.564 4.48768C309.259 4.49861 308.95 4.50556 308.65 4.52146C308.392 4.53537 308.212 4.51252 308.032 4.48171C307.972 4.47177 307.903 4.45289 307.843 4.45388C307.16 4.47376 306.473 4.49364 305.795 4.52146C305.523 4.53339 305.366 4.50159 305.181 4.47476C305.117 4.46582 305.052 4.44693 304.992 4.44793C304.761 4.4519 304.535 4.46283 304.305 4.47078C303.465 4.50059 302.63 4.5304 301.79 4.55823C301.735 4.56022 301.666 4.53934 301.601 4.5304C301.477 4.51251 301.347 4.49562 301.218 4.47873C300.988 4.48668 300.762 4.49661 300.531 4.50257C300.365 4.50655 300.217 4.52047 300.194 4.55823C300.18 4.58307 300.333 4.60592 300.494 4.60394C300.651 4.60195 300.808 4.59002 300.937 4.60294C301.578 4.66654 301.578 4.66753 301.979 4.65462C302.33 4.64269 302.293 4.63275 302.602 4.6874C302.736 4.71125 302.856 4.72517 303.008 4.71921C303.387 4.7053 303.769 4.69138 304.152 4.67946C304.212 4.67747 304.291 4.68741 304.351 4.69536C304.803 4.75498 304.803 4.75697 305.177 4.74206C305.666 4.72418 305.684 4.71921 306.012 4.77983C306.238 4.82156 306.445 4.79274 306.662 4.79075C306.911 4.82951 307.183 4.8643 307.409 4.90802C307.677 4.95969 307.958 4.95074 308.263 4.93583C308.489 4.9249 308.71 4.92093 308.895 4.96167C309.07 4.99943 309.282 5.00341 309.522 4.99348C309.739 4.98453 309.961 4.96565 310.187 4.98751C310.247 4.99347 310.339 5.00838 310.334 5.01732C310.33 5.03124 310.27 5.05111 310.21 5.05708C309.785 5.09782 309.319 5.09682 308.872 5.1157C308.812 5.11868 308.734 5.10775 308.674 5.0998C308.544 5.08191 308.42 5.06105 308.295 5.04217C308.069 5.04813 307.839 5.05011 307.617 5.06204C307.446 5.07098 307.317 5.07 307.193 5.04615C307.077 5.02428 306.953 4.99745 306.814 4.99049C306.676 4.98354 306.514 4.99844 306.362 5.00441C306.21 5.01037 306.035 5.00738 305.915 5.02328C305.795 5.03918 305.721 5.07396 305.643 5.10179C305.555 5.13259 305.435 5.14254 305.26 5.14552C305.098 5.1485 304.969 5.14452 304.849 5.1167C304.798 5.10477 304.729 5.09582 304.66 5.08788C304.595 5.08092 304.521 5.06998 304.461 5.07197C303.774 5.09483 303.091 5.11968 302.404 5.14353C302.062 5.15545 302.067 5.15544 301.357 5.09682C301.292 5.09185 301.214 5.08489 301.149 5.08688C300.766 5.0988 300.388 5.11272 300.005 5.12663C299.617 5.14054 299.622 5.13856 298.962 5.07595C298.842 5.06403 298.667 5.07993 298.524 5.07794C298.224 5.07297 298.077 4.9895 297.726 5.0054C297.426 5.01931 297.112 5.02229 296.812 5.04018C296.54 5.05608 296.383 5.0213 296.199 4.99447C296.134 4.98553 296.065 4.96565 296.01 4.96764C295.322 4.9895 294.64 5.01434 293.726 5.01732C293.5 5.01732 293.602 5.0382 293.749 5.04515C293.961 5.05608 294.031 5.03521 293.915 4.99547C293.832 4.96764 293.712 4.95372 293.615 4.96068C293.565 4.96465 293.5 4.98354 293.726 5.01732C293.966 5.05509 293.952 5.07595 293.994 5.08788C294.095 5.11669 294.238 5.12862 294.386 5.12464C294.617 5.11769 294.843 5.10775 295.073 5.10179C295.138 5.0998 295.216 5.10676 295.276 5.11471C295.784 5.17632 295.788 5.1803 296.328 5.15645C296.499 5.14949 296.623 5.14949 296.757 5.16837C296.942 5.19421 297.075 5.23793 297.357 5.22401C297.731 5.20513 298.113 5.19421 298.496 5.18328C298.556 5.18129 298.621 5.19918 298.69 5.20713C298.879 5.23098 299.018 5.2757 299.299 5.25681C299.516 5.24191 299.751 5.23792 299.982 5.23494C300.042 5.23395 300.134 5.24985 300.162 5.26277C300.217 5.28563 300.148 5.31246 299.991 5.33134C299.927 5.33929 299.839 5.3373 299.765 5.34028C299.461 5.35121 299.156 5.36313 298.852 5.37208C298.69 5.37705 298.538 5.39196 298.519 5.42873C298.506 5.45357 298.672 5.47543 298.829 5.47344C299.059 5.47046 299.29 5.46251 299.511 5.44959C299.903 5.42773 300.245 5.43369 300.563 5.49629C300.789 5.54002 300.775 5.52412 301.015 5.65331C301.075 5.6861 301.255 5.68908 301.412 5.68709C301.79 5.68212 301.966 5.69703 301.933 5.72784C301.892 5.7656 301.758 5.77751 301.587 5.78248C301.283 5.79043 300.978 5.80336 300.674 5.81429C300.6 5.81727 300.517 5.82323 300.448 5.82124C300.379 5.81925 300.314 5.80733 300.254 5.79839C300.125 5.77951 300.014 5.75068 299.876 5.74373C299.737 5.73677 299.576 5.75168 299.424 5.75764C299.271 5.76261 299.11 5.77751 298.972 5.77056C298.833 5.7636 298.718 5.7338 298.593 5.71591C298.533 5.70697 298.459 5.69305 298.4 5.69404C298.095 5.70199 297.791 5.71491 297.486 5.72485C297.112 5.73777 297.112 5.73777 296.66 5.67616C296.531 5.65827 296.397 5.65927 296.227 5.66722C295.858 5.68312 295.853 5.68013 295.179 5.6225C295.115 5.61653 295.036 5.60958 294.972 5.61256C294.284 5.63542 293.602 5.66026 292.919 5.68411C292.333 5.70497 292.333 5.70498 292.01 5.80435C291.77 5.87789 291.765 5.87788 292.001 5.91167C292.19 5.9395 292.36 5.98023 292.568 5.99514C292.762 6.00905 293.002 5.96434 293.214 6.01005C293.32 6.0329 293.458 6.05775 293.592 6.06172C293.804 6.06669 294.031 6.03787 294.234 6.08159C294.335 6.10345 294.487 6.12632 294.617 6.12731C294.843 6.1293 295.073 6.11339 295.299 6.10644C295.368 6.10445 295.447 6.10445 295.512 6.10942C295.581 6.11538 295.641 6.12731 295.701 6.13725C295.885 6.17103 296.084 6.18693 296.323 6.17003C296.716 6.14221 297.066 6.15612 297.371 6.21972C297.412 6.22866 297.514 6.22966 297.578 6.22569C297.744 6.21575 297.887 6.21475 298.012 6.23363C298.063 6.24158 298.136 6.25549 298.127 6.26443C298.113 6.27934 298.058 6.29922 297.998 6.30418C297.564 6.33797 297.099 6.34195 296.651 6.35984C296.591 6.36183 296.517 6.3489 296.457 6.33996C296.328 6.32207 296.217 6.29227 296.079 6.28531C295.941 6.27835 295.779 6.29127 295.627 6.29624C295.475 6.30121 295.313 6.31611 295.175 6.31015C295.036 6.3032 294.907 6.27835 294.796 6.25649C294.667 6.23165 294.543 6.22867 294.372 6.23861C294.151 6.25153 293.92 6.25351 293.694 6.26047C293.569 6.24159 293.445 6.22071 293.316 6.20282C293.256 6.19388 293.182 6.18295 293.117 6.18395C292.813 6.1919 292.508 6.20382 292.204 6.21475C291.899 6.22568 291.899 6.22569 291.383 6.16408C291.323 6.15712 291.244 6.14917 291.179 6.15116C290.797 6.16308 290.418 6.17798 290.035 6.1899C289.888 6.19487 289.754 6.18096 289.634 6.15413C289.519 6.1273 289.38 6.1124 289.237 6.11737C288.628 6.13823 288.019 6.15811 287.41 6.18295C287.166 6.19289 286.958 6.18395 286.792 6.14818C286.598 6.10743 286.382 6.11737 286.156 6.12532C285.643 6.1452 285.639 6.1442 285.311 6.09352C285.247 6.08358 285.182 6.0647 285.122 6.06569C284.592 6.0806 284.056 6.09451 283.531 6.11836C283.254 6.13128 283.106 6.0965 282.922 6.07066C282.857 6.06172 282.788 6.04284 282.732 6.04483C282.349 6.05576 281.966 6.0657 281.593 6.08557C281.219 6.10545 281.076 6.01303 280.795 6.01403C280.412 6.01502 280.033 6.03788 279.655 6.05179C279.351 6.06272 279.046 6.07365 278.742 6.08458C278.437 6.09551 278.133 6.10445 277.828 6.11737C277.667 6.12432 277.547 6.11538 277.413 6.09053C277.242 6.05774 277.039 6.03191 276.855 6.0021C276.574 5.95937 276.573 5.95937 276.232 5.97129C276.158 5.97427 276.08 5.97626 276.006 5.97924C275.448 6.0011 275.448 5.99912 274.737 5.93651C274.705 5.93353 274.622 5.94447 274.59 5.95242C274.493 5.97825 274.405 6.00607 274.318 6.0329C274.193 6.017 274.041 6.00806 273.958 5.98521C273.722 5.92061 273.353 6.00905 273.113 5.94545C273.026 5.9216 272.873 5.90074 272.735 5.89477C272.592 5.88881 272.431 5.90272 272.283 5.90869C271.9 5.92359 271.9 5.9226 271.572 6.01104C271.406 6.05477 271.167 6.04681 270.95 6.05675C270.724 6.06768 270.507 6.07364 270.318 6.0329C270.147 5.99613 269.939 5.98719 269.695 5.99912C269.395 6.01402 269.086 6.02296 268.781 6.03191C268.717 6.03389 268.638 6.02893 268.574 6.02297C267.868 5.96434 267.868 5.96335 267.527 5.97626C267.374 5.98223 267.217 5.98421 267.07 5.99315C266.821 6.00905 266.632 5.98818 266.452 5.95638C266.392 5.94645 266.322 5.92757 266.262 5.92857C265.958 5.93354 265.658 5.94248 265.358 5.95142C265.128 5.95838 264.897 5.96235 264.675 5.97626C264.306 5.99912 264.126 5.93452 263.873 5.90471C263.494 5.91763 263.112 5.92657 262.733 5.94446C262.558 5.95241 262.443 5.94943 262.309 5.92558C262.138 5.89577 261.981 5.86199 261.704 5.87689C261.335 5.89677 260.948 5.90373 260.57 5.91565C260.316 5.88484 260.131 5.82223 259.767 5.84509C259.545 5.859 259.31 5.86198 259.084 5.86993C258.78 5.88086 258.475 5.89081 258.171 5.90273C257.843 5.91466 257.848 5.91167 257.345 5.85304C257.054 5.81826 256.754 5.85702 256.459 5.86298C256.228 5.86795 256.113 5.91366 256.168 5.97229C256.224 6.03092 256.099 6.07663 255.887 6.08458C255.356 6.10346 254.821 6.12333 254.291 6.14022C254.226 6.14221 254.148 6.13525 254.088 6.12829C253.52 6.06569 253.52 6.06669 253.267 6.07564C252.888 6.09054 252.501 6.09848 252.127 6.11737C251.869 6.13028 251.68 6.10942 251.513 6.07564C251.384 6.0498 251.264 6.04384 251.098 6.0498C249.271 6.11638 247.444 6.17799 245.622 6.24655C245.35 6.25649 245.193 6.22768 245.009 6.20085C244.944 6.1919 244.884 6.17302 244.819 6.17302C244.667 6.17302 244.515 6.18196 244.363 6.18793C243.68 6.21178 242.997 6.24059 242.31 6.25848C242.019 6.26643 241.941 6.31214 241.816 6.3499C241.719 6.37872 241.609 6.39064 241.438 6.39462C241.272 6.39859 241.152 6.39362 241.023 6.36778C240.856 6.334 240.667 6.31313 240.409 6.32704C240.109 6.34294 239.805 6.3499 239.495 6.36083C239.339 6.3658 239.219 6.38369 239.168 6.41946C239.159 6.42542 239.256 6.44033 239.311 6.44928C239.496 6.47909 239.671 6.51387 239.878 6.53473C240.091 6.5556 240.321 6.53174 240.543 6.52578C240.621 6.52379 240.695 6.51784 240.769 6.51883C240.838 6.51982 240.921 6.5248 240.972 6.53374C241.212 6.57846 241.465 6.60926 241.798 6.58243C242.084 6.59535 242.231 6.67783 242.596 6.65596C242.817 6.64305 243.048 6.63708 243.279 6.63212C243.339 6.63112 243.403 6.64901 243.468 6.65795C243.652 6.6828 243.8 6.72254 244.077 6.70565C244.372 6.68776 244.686 6.68478 244.986 6.67087C245.152 6.66292 245.271 6.66988 245.401 6.69572C245.567 6.72851 245.756 6.75334 246.014 6.73744C246.236 6.72353 246.471 6.72055 246.697 6.71161C246.992 6.70068 246.992 6.70167 247.518 6.76328C247.578 6.77024 247.657 6.77819 247.721 6.7762C248.104 6.76428 248.482 6.74937 248.865 6.73744C249.013 6.73247 249.156 6.74539 249.258 6.77421C249.299 6.78614 249.285 6.80602 249.299 6.82291C248.538 6.84974 247.777 6.8726 247.02 6.90539C246.734 6.91831 246.605 6.87756 246.416 6.85471C246.351 6.84676 246.282 6.82987 246.222 6.83185C245.687 6.84875 245.156 6.86663 244.626 6.88849C244.46 6.89545 244.335 6.89147 244.21 6.86265C243.892 6.78614 243.505 6.82787 243.145 6.8388C242.868 6.84675 242.78 6.87756 242.813 6.94315C242.854 7.02066 243.02 7.04451 243.445 7.0306C243.597 7.02563 243.749 7.01867 243.901 7.01469C244.049 7.01072 244.183 7.02364 244.303 7.05047C244.418 7.0773 244.556 7.09121 244.699 7.08723C245.004 7.07829 245.313 7.06935 245.608 7.05445C245.853 7.04252 246.056 7.05246 246.226 7.08922C246.416 7.12997 246.637 7.12102 246.859 7.11208C247.375 7.0922 247.38 7.0932 247.703 7.14289C247.767 7.15283 247.832 7.17171 247.892 7.17072C248.423 7.15581 248.958 7.14289 249.479 7.11904C249.751 7.10712 249.908 7.13891 250.088 7.16475C250.153 7.17369 250.217 7.19357 250.277 7.19158C250.66 7.18065 251.043 7.16971 251.417 7.15083C251.592 7.14189 251.698 7.14785 251.841 7.1717C252.182 7.23033 252.192 7.22834 252.676 7.20946C252.824 7.2035 252.985 7.19257 253.124 7.20052C253.262 7.20847 253.373 7.23729 253.502 7.25518C253.562 7.26313 253.636 7.27405 253.7 7.27206C254.005 7.26411 254.309 7.2522 254.614 7.24127C254.9 7.23033 254.9 7.23133 255.435 7.29294C255.652 7.31878 255.878 7.29691 256.095 7.28896C256.33 7.28002 256.542 7.28002 256.722 7.31878C256.902 7.35753 257.119 7.35554 257.349 7.34759C257.566 7.33964 257.788 7.31779 258.009 7.34462C258.517 7.40623 258.517 7.40721 258.83 7.39528C259.287 7.37839 259.739 7.36249 260.201 7.34759C260.26 7.3456 260.339 7.35753 260.399 7.36548C260.528 7.38337 260.639 7.41317 260.777 7.42013C260.916 7.42808 261.077 7.41615 261.225 7.41019C261.7 7.39131 261.732 7.38436 262.05 7.44994C262.318 7.5036 262.65 7.42609 262.899 7.48771C263.042 7.52249 263.236 7.55031 263.504 7.53341C263.725 7.5195 263.956 7.51552 264.186 7.50757C264.551 7.49466 264.551 7.49566 265.012 7.55528C265.072 7.56323 265.151 7.57316 265.211 7.57117C265.515 7.56322 265.824 7.55627 266.12 7.53839C266.466 7.51752 266.687 7.55528 266.945 7.59205C267.148 7.62087 267.388 7.59701 267.605 7.58708C267.84 7.57714 268.052 7.58012 268.228 7.61887C268.412 7.65862 268.629 7.65365 268.86 7.6457C269.077 7.63875 269.298 7.61589 269.52 7.64371C269.995 7.70532 269.995 7.70532 270.341 7.6934C270.645 7.68247 270.95 7.67055 271.254 7.6626C271.314 7.66061 271.388 7.67353 271.448 7.68247C271.577 7.70036 271.688 7.73017 271.826 7.73713C271.965 7.74409 272.126 7.73117 272.278 7.7262C272.431 7.72123 272.592 7.70632 272.73 7.71229C272.869 7.71825 272.998 7.74309 273.109 7.76496C273.238 7.79079 273.358 7.79377 273.533 7.78383C273.755 7.77091 273.985 7.76793 274.211 7.76098C274.336 7.77986 274.465 7.79874 274.585 7.8196C274.71 7.84147 274.843 7.83948 275.014 7.83252C275.582 7.80867 275.586 7.81166 276.061 7.87327C276.278 7.90109 276.504 7.87823 276.721 7.87128C276.952 7.86333 277.169 7.85936 277.348 7.89911C277.524 7.93687 277.741 7.94183 277.971 7.9299C278.119 7.92196 278.276 7.917 278.428 7.91401C278.497 7.91302 278.58 7.91699 278.631 7.92494C278.876 7.96668 279.115 8.00444 279.452 7.97761C279.747 7.98556 279.895 8.06705 280.25 8.05115C280.55 8.03724 280.864 8.03424 281.159 8.01636C281.431 8.00046 281.625 8.02829 281.764 8.06307C282.013 8.12468 282.363 8.04121 282.612 8.10183C282.755 8.13661 282.94 8.16443 283.217 8.14952C283.521 8.13363 283.618 8.15449 283.706 8.21709C283.757 8.25286 283.747 8.28169 283.655 8.30951C283.563 8.33833 283.461 8.33336 283.314 8.30057C283.143 8.2638 282.94 8.25684 282.695 8.26479C282.456 8.27274 282.308 8.22107 282.11 8.2012C281.911 8.18033 281.676 8.21511 281.468 8.18828C280.979 8.12568 280.979 8.12568 280.647 8.1376C280.421 8.14555 280.186 8.14953 279.964 8.16344C279.701 8.18033 279.531 8.14952 279.351 8.1217C279.286 8.11176 279.221 8.09288 279.166 8.09387C278.636 8.10878 278.1 8.12269 277.575 8.14754C277.298 8.16045 277.15 8.12468 276.966 8.09984C276.901 8.0909 276.832 8.07301 276.776 8.075C276.32 8.08891 275.868 8.10679 275.411 8.12369C275.323 8.15052 275.226 8.17635 275.143 8.20517C275.056 8.23498 274.936 8.2479 274.76 8.24691C274.47 8.24691 274.184 8.28864 273.893 8.23598C273.593 8.18232 273.57 8.1853 273.28 8.19822C272.91 8.21511 272.518 8.21114 272.172 8.24989C272.112 8.25685 272.048 8.27572 272.048 8.28963C272.043 8.29857 272.14 8.3115 272.2 8.31945C272.403 8.3433 272.638 8.30852 272.841 8.33336C272.975 8.34926 273.086 8.3731 273.22 8.39C273.275 8.39695 273.358 8.39596 273.432 8.39497C273.51 8.39398 273.584 8.38703 273.658 8.38802C273.727 8.38901 273.801 8.39497 273.856 8.40391C274.11 8.44167 274.377 8.47646 274.604 8.52117C274.825 8.5649 275.033 8.53509 275.254 8.5331C276.14 8.60266 276.14 8.60365 276.735 8.58179C276.883 8.57682 277.035 8.57086 277.187 8.57185C277.252 8.57185 277.312 8.58973 277.376 8.59967C277.561 8.62948 277.736 8.65631 277.994 8.64042C278.216 8.6265 278.451 8.62352 278.677 8.61458C278.982 8.60365 278.982 8.60365 279.498 8.66625C279.628 8.68215 279.766 8.68017 279.932 8.67222C280.075 8.66527 280.223 8.68017 280.324 8.70899C280.366 8.72091 280.352 8.74079 280.366 8.75768C279.909 8.77358 279.448 8.78451 279.005 8.80836C278.719 8.82327 278.59 8.78053 278.4 8.75768C278.336 8.74973 278.267 8.73284 278.207 8.73483C277.755 8.74973 277.302 8.76661 276.85 8.78649C276.795 8.78848 276.726 8.81133 276.721 8.82524C276.712 8.85108 276.827 8.87593 276.993 8.87493C277.215 8.87394 277.432 8.85704 277.63 8.89779C277.796 8.93356 278.004 8.94947 278.248 8.93357C278.396 8.92463 278.553 8.92462 278.7 8.91667C279.092 8.89282 279.448 8.89779 279.743 8.96536C279.969 8.98325 280.19 8.96636 280.407 8.95742C280.569 8.95046 280.726 8.9435 280.841 8.96238C281.085 9.00213 281.325 9.04188 281.662 9.01505C282.027 9.04287 282.303 9.1015 282.608 9.1492C282.751 9.17205 282.862 9.18498 283.028 9.17007C283.097 9.16411 283.18 9.1641 283.254 9.16112C283.406 9.15615 283.567 9.14125 283.706 9.14721C283.844 9.15417 283.96 9.18299 284.084 9.20087C284.144 9.20982 284.213 9.22472 284.273 9.22373C284.504 9.21876 284.73 9.20882 284.956 9.20087C285.182 9.19392 285.408 9.18696 285.634 9.18001C285.823 9.20585 286.017 9.23169 286.206 9.25752C286.511 9.24659 286.815 9.23565 287.115 9.22572C287.452 9.21379 287.452 9.21479 287.936 9.2764C288.153 9.30422 288.384 9.28633 288.591 9.27341C288.937 9.25254 289.168 9.29031 289.413 9.33006C289.463 9.33801 289.556 9.34298 289.616 9.339C289.855 9.32509 290.063 9.33602 290.238 9.37278C290.363 9.39862 290.487 9.41055 290.64 9.40559C291.17 9.3867 291.701 9.36682 292.231 9.34993C292.296 9.34794 292.37 9.35689 292.43 9.36484C292.9 9.42546 292.905 9.42844 293.251 9.41254C293.56 9.39862 293.846 9.39266 294.091 9.44731C294.141 9.45924 294.22 9.47613 294.275 9.47514C294.653 9.4652 295.036 9.45427 295.41 9.43738C295.581 9.42943 295.701 9.43242 295.834 9.45527C296.005 9.48409 296.157 9.51887 296.439 9.50595C297.218 9.46918 297.223 9.47513 298.146 9.5437C298.21 9.54867 298.298 9.54073 298.372 9.53675C298.529 9.52681 298.644 9.54073 298.782 9.56358C299.091 9.61526 299.101 9.61228 299.396 9.60134C299.622 9.5924 299.857 9.59041 300.079 9.57551C300.42 9.55365 300.646 9.5924 300.9 9.62917C301.103 9.65799 301.338 9.63414 301.555 9.62519C301.79 9.61526 302.003 9.61823 302.178 9.65599C302.298 9.68183 302.427 9.69575 302.579 9.69078C303.11 9.67289 303.64 9.65301 304.171 9.63513C304.235 9.63314 304.314 9.64109 304.374 9.64805C304.9 9.70966 304.9 9.71264 305.421 9.68979C305.587 9.68283 305.726 9.68084 305.85 9.70171C305.97 9.72159 306.099 9.74046 306.224 9.75934C306.45 9.75239 306.681 9.7504 306.902 9.73848C307.073 9.72953 307.193 9.73351 307.326 9.75438C307.502 9.78121 307.649 9.8279 307.926 9.80505C308.069 9.79412 308.235 9.79711 308.378 9.78717C308.549 9.77425 308.664 9.7822 308.798 9.80803C308.964 9.83884 309.135 9.87064 309.402 9.85474C309.698 9.83685 310.011 9.83387 310.311 9.81996C310.477 9.81201 310.593 9.81996 310.727 9.8458C310.893 9.87859 311.082 9.89946 311.34 9.88654C311.866 9.8617 311.871 9.86666 312.383 9.92926C312.512 9.94516 312.65 9.94318 312.816 9.93523C312.959 9.92828 313.107 9.94318 313.208 9.972C313.305 10.0038 313.296 10.0237 313.305 10.0406ZM272.195 1.07823C272.043 1.0832 271.891 1.08916 271.669 1.0027C271.656 0.987798 271.665 0.969915 271.633 0.956996C271.559 0.930166 271.443 0.911286 271.305 0.908305C271.056 0.90433 270.756 0.93811 270.761 0.963947C270.765 0.985809 270.844 1.00469 270.996 1.02257C271.06 1.02953 271.111 1.04146 271.171 1.04941C271.346 1.07226 271.485 1.11699 271.739 1.09413C271.693 1.03252 271.716 1.06332 271.739 1.09413C271.716 1.13189 271.785 1.15872 271.951 1.16965C271.997 1.17263 272.066 1.17064 272.103 1.16468C272.246 1.14282 272.269 1.11301 272.163 1.03451C272.145 1.04743 272.158 1.07028 272.2 1.07624C272.241 1.0822 272.343 1.07724 272.394 1.07028C272.523 1.0514 272.587 1.02656 272.555 1.00569C272.537 0.994757 272.449 0.980845 272.394 0.980845C272.297 0.980845 272.209 1.0027 272.195 1.07823ZM309.499 12.6024C309.162 12.6212 308.775 12.6143 308.438 12.653C308.378 12.66 308.318 12.6779 308.314 12.6918C308.309 12.7007 308.401 12.7137 308.457 12.7206C308.581 12.7365 308.72 12.7316 308.881 12.7266C309.126 12.7196 309.269 12.7653 309.458 12.7882C309.518 12.7951 309.596 12.8001 309.661 12.7981C310.034 12.7862 310.404 12.7733 310.777 12.7594C310.842 12.7564 310.911 12.7494 310.966 12.7405C311.151 12.7117 311.132 12.6928 310.953 12.6709C310.754 12.6471 310.597 12.6073 310.394 12.5885C310.104 12.5616 309.808 12.5974 309.499 12.6024ZM283.3 13.3278C283.074 13.3357 282.852 13.3437 282.626 13.3516C282.552 13.3546 282.474 13.3556 282.405 13.3596C282.262 13.3665 282.156 13.3874 282.086 13.4202C282.193 13.446 282.322 13.4609 282.465 13.458C282.691 13.452 282.912 13.4391 283.138 13.4361C283.383 13.4321 283.526 13.4768 283.715 13.4997C283.775 13.5067 283.849 13.5076 283.918 13.5086C284.259 13.5126 284.467 13.4609 284.402 13.3884C284.356 13.3318 284.181 13.298 283.969 13.3049C283.747 13.3119 283.521 13.3198 283.3 13.3278ZM311.077 11.1336C311.132 11.1168 311.192 11.1048 311.22 11.0899C311.303 11.0393 311.271 11.0015 311.119 10.9617C310.934 10.913 310.708 10.9458 310.5 10.9508C310.45 10.9518 310.394 10.9727 310.367 10.9856C310.348 10.9945 310.348 11.0134 310.376 11.0184C310.602 11.0581 310.842 11.0949 311.077 11.1336ZM271.056 8.19822C270.834 8.20617 270.608 8.21213 270.387 8.22306C270.332 8.22604 270.281 8.24492 270.249 8.25784C270.189 8.28169 270.253 8.31448 270.442 8.31746C270.659 8.32143 270.885 8.30454 271.111 8.29659C271.397 8.28666 271.568 8.24988 271.462 8.21809C271.36 8.18728 271.222 8.18132 271.056 8.19822ZM28.2109 6.07464C28.3585 6.06967 28.5108 6.0657 28.6584 6.05874C28.7968 6.05178 28.903 6.02992 28.9722 5.99713C28.8569 5.97129 28.7276 5.95738 28.5846 5.96036C28.3586 5.96632 28.1371 5.97427 27.9157 5.98421C27.7773 5.99017 27.6436 6.01203 27.6113 6.04582C27.579 6.07166 27.888 6.08657 28.2109 6.07464ZM251.546 5.92161C251.606 5.93055 251.666 5.94844 251.726 5.94844C251.873 5.94844 252.026 5.94247 252.164 5.93254C252.224 5.92856 252.27 5.91068 252.298 5.89676C252.316 5.88782 252.312 5.87192 252.284 5.86397C252.15 5.81628 251.615 5.83317 251.527 5.88782C251.518 5.89776 251.541 5.91068 251.546 5.92161ZM236.99 0.480007C237.004 0.495907 237.009 0.511804 237.027 0.527704C237.064 0.557515 237.166 0.579381 237.313 0.594287C237.429 0.569444 237.489 0.541624 237.484 0.511813C237.48 0.495913 237.466 0.480004 237.447 0.464104C237.41 0.434293 237.309 0.412439 237.161 0.397533C237.046 0.421382 236.99 0.449202 236.99 0.480007ZM321.739 13.5007C321.697 13.5136 321.656 13.5265 321.609 13.5385C321.734 13.5673 321.849 13.5762 321.937 13.5603C321.992 13.5504 322.025 13.5355 322.066 13.5226C321.942 13.4937 321.831 13.4858 321.739 13.5007ZM318.869 13.6358C318.929 13.6448 318.984 13.6567 319.049 13.6627C319.155 13.6726 319.252 13.6557 319.326 13.6199C319.266 13.611 319.211 13.5991 319.146 13.5931C319.04 13.5832 318.943 13.6001 318.869 13.6358ZM320.687 13.454C320.654 13.4778 320.719 13.4977 320.89 13.5146C320.931 13.5017 320.987 13.4898 321.014 13.4758C321.061 13.453 320.982 13.4321 320.816 13.4162C320.77 13.4282 320.728 13.4411 320.687 13.454ZM310.948 12.3828C310.916 12.4066 310.98 12.4265 311.151 12.4434C311.192 12.4305 311.248 12.4185 311.275 12.4046C311.322 12.3818 311.243 12.3609 311.077 12.345C311.031 12.3569 310.989 12.3698 310.948 12.3828ZM297.68 5.35121C297.638 5.36413 297.597 5.37705 297.551 5.38897C297.675 5.41779 297.79 5.42673 297.878 5.41083C297.933 5.4009 297.966 5.38599 298.007 5.37307C297.883 5.34425 297.772 5.33631 297.68 5.35121ZM284.97 1.62079C285.081 1.62775 285.173 1.61384 285.251 1.57708C285.191 1.56813 285.136 1.55621 285.071 1.55024C284.965 1.54031 284.868 1.5572 284.795 1.59298C284.855 1.60292 284.914 1.61185 284.97 1.62079ZM278.22 1.38727C278.179 1.40019 278.137 1.41311 278.091 1.42503C278.216 1.45385 278.331 1.46279 278.419 1.44689C278.474 1.43696 278.507 1.42205 278.548 1.40913C278.423 1.38031 278.313 1.37336 278.22 1.38727ZM232.451 0.479012C232.409 0.491931 232.368 0.50485 232.322 0.516774C232.446 0.545592 232.562 0.554533 232.649 0.538633C232.705 0.528696 232.737 0.51379 232.778 0.500871C232.654 0.472053 232.543 0.4651 232.451 0.479012ZM4.55337 8.5639C4.4934 8.55495 4.43348 8.54602 4.37811 8.53608C4.24433 8.56291 4.20282 8.58775 4.27663 8.60663C4.32277 8.61856 4.39191 8.62552 4.45189 8.63446C4.59029 8.60763 4.62257 8.58377 4.55337 8.5639Z" fill="#FFE492"/>
</svg>
